<svg width="20" height="20" viewBox="0 0 20 20" fill="none" xmlns="http://www.w3.org/2000/svg">
<path d="M19.8577 4.53005C19.7181 4.34939 19.4959 4.24263 19.2591 4.24263H4.19755V5.64122H18.2431L16.7194 10.1167H5.25928V11.5153H17.2594C17.5809 11.5153 17.8661 11.319 17.9646 11.03L19.9646 5.15587C20.0369 4.9431 19.9971 4.71048 19.8577 4.53005Z" fill="white"/>
<path d="M6.86419 15.4312C5.52987 15.4312 4.44448 16.4559 4.44448 17.7156C4.44448 18.9753 5.52992 20 6.86419 20C8.19852 20 9.28391 18.975 9.28391 17.7156C9.28391 16.4562 8.19852 15.4312 6.86419 15.4312ZM6.86419 18.6016C6.3469 18.6016 5.92593 18.2044 5.92593 17.7159C5.92593 17.2273 6.3469 16.8301 6.86419 16.8301C7.38174 16.8301 7.80246 17.2273 7.80246 17.7159C7.80246 18.2044 7.38174 18.6016 6.86419 18.6016Z" fill="white"/>
<path d="M15.6545 15.4312C14.3199 15.4312 13.2345 16.456 13.2345 17.7156C13.2345 18.9753 14.3199 20 15.6545 20C16.9885 20 18.0742 18.9753 18.0742 17.7156C18.0742 16.456 16.9885 15.4312 15.6545 15.4312ZM15.6545 18.6014C15.1369 18.6014 14.716 18.204 14.716 17.7156C14.716 17.2273 15.1369 16.8301 15.6545 16.8301C16.1718 16.8301 16.5927 17.227 16.5927 17.7156C16.5927 18.2042 16.172 18.6014 15.6545 18.6014Z" fill="white"/>
<path d="M5.80246 14.7322H17.3332C17.7426 14.7322 18.0739 14.4191 18.0739 14.0329C18.0739 13.6466 17.7423 13.3336 17.3332 13.3336H6.43234L4.31161 1.05313C4.26076 0.758945 4.01829 0.527734 3.70743 0.476679L0.867941 0.0104674C0.463731 -0.0557437 0.0812847 0.199061 0.0111509 0.579453C-0.0592311 0.960118 0.210918 1.32211 0.613846 1.38832L2.93405 1.76922L5.07129 14.1452C5.12988 14.4839 5.43926 14.7322 5.80246 14.7322Z" fill="white"/>
</svg>
