<svg width="22" height="20" viewBox="0 0 22 20" fill="none" xmlns="http://www.w3.org/2000/svg">
<path d="M20.0538 1.94765C18.7815 0.691649 17.0793 0 15.2602 0C13.6941 0 12.2147 0.512766 11.0216 1.45677C9.81135 0.512766 8.33018 0 6.77935 0C4.9518 0 3.24509 0.691946 1.97287 1.94765C0.700606 3.20339 0 4.88413 0 6.6797C0 8.47553 0.700606 10.156 1.97287 11.4117L10.4405 19.7711C10.5948 19.9237 10.7974 20 11 20C11.2021 20 11.4041 19.9239 11.5587 19.7721L20.0332 11.4315C21.3018 10.1511 22 8.46823 22 6.69273C22 4.9008 21.311 3.21798 20.0538 1.94765ZM18.9087 10.3318L11.0008 18.1146L3.09186 10.307C2.11875 9.3461 1.58271 8.05783 1.58271 6.6797C1.58271 5.30158 2.11875 4.0133 3.09186 3.05238C4.06523 2.0917 5.3747 1.56252 6.77935 1.56252C8.16161 1.56252 9.47371 2.09404 10.4732 3.05861C10.7829 3.35784 11.2796 3.35521 11.5859 3.05238C12.5593 2.0917 13.864 1.56252 15.2602 1.56252C16.6564 1.56252 17.9611 2.0917 18.9279 3.0461C19.8883 4.01614 20.4172 5.31121 20.4172 6.69273C20.4172 8.05757 19.8791 9.35259 18.9087 10.3318Z" fill="white"/>
</svg>
