<svg width="22" height="22" viewBox="0 0 22 22" fill="none" xmlns="http://www.w3.org/2000/svg">
<path d="M21.7756 0.572348C21.4765 0.278012 20.9921 0.278012 20.693 0.572348L14.0062 7.15227C13.7071 7.44635 13.7071 7.92351 14.0062 8.21759C14.1558 8.36476 14.3516 8.43836 14.5476 8.43836C14.7433 8.43836 14.9394 8.36476 15.0889 8.21759L21.7756 1.63771C22.0747 1.34359 22.0747 0.866425 21.7756 0.572348Z" fill="#8B8B8B"/>
<path d="M21.7756 0.572348C21.6322 0.430938 21.4372 0.351565 21.2343 0.351565C21.2325 0.351565 21.2305 0.351565 21.2287 0.351565L14.5419 0.401838C14.1188 0.405104 13.7786 0.7449 13.7819 1.16105C13.7852 1.57518 14.1275 1.90871 14.5475 1.90871C14.5491 1.90871 14.5511 1.90871 14.5532 1.90871L20.4628 1.86423L20.4176 7.67914C20.4145 8.09529 20.7547 8.43509 21.1776 8.43835C21.1794 8.43835 21.1812 8.43835 21.1832 8.43835C21.6033 8.43835 21.9456 8.10483 21.9489 7.6907L21.9999 1.11082C22.0015 0.908868 21.9206 0.715004 21.7756 0.572348Z" fill="#8B8B8B"/>
<path d="M21.7756 20.7139L15.0889 14.1342C14.7898 13.8399 14.3054 13.8399 14.0062 14.1342C13.7071 14.4286 13.7071 14.9055 14.0062 15.1996L20.693 21.7792C20.8425 21.9264 21.0383 22 21.2343 22C21.43 22 21.6261 21.9264 21.7756 21.7792C22.0747 21.4848 22.0747 21.0079 21.7756 20.7139Z" fill="#8B8B8B"/>
<path d="M21.9489 14.6614C21.9458 14.2452 21.6033 13.9188 21.1776 13.9135C20.7544 13.9165 20.4142 14.2565 20.4176 14.6724L20.4625 20.4873L14.5532 20.4431C14.5514 20.4431 14.5493 20.4431 14.5475 20.4431C14.1275 20.4431 13.7852 20.7769 13.7819 21.191C13.7788 21.6069 14.119 21.9467 14.5419 21.95L21.2287 22C21.2302 22 21.2322 22 21.2343 22C21.4372 22 21.6319 21.9206 21.7756 21.7794C21.9206 21.6365 22.0015 21.4427 22 21.241L21.9489 14.6614Z" fill="#8B8B8B"/>
<path d="M8.14693 6.80065L1.46043 0.22077C1.16132 -0.0733073 0.676404 -0.0735651 0.377552 0.22077C0.0784374 0.514848 0.0784374 0.992015 0.377552 1.28609L7.06405 7.86597C7.2136 8.01314 7.40962 8.08674 7.60564 8.08674C7.8014 8.08674 7.99741 8.01314 8.14697 7.86597C8.44604 7.57189 8.44604 7.09473 8.14693 6.80065Z" fill="#8B8B8B"/>
<path d="M7.61149 0.0502304L0.924735 0C0.922682 0 0.920892 0 0.918883 0C0.715748 0 0.520996 0.0793604 0.377552 0.22077C0.232318 0.363426 0.151666 0.557304 0.152976 0.759214L0.204022 7.33909C0.20734 7.75322 0.549597 8.08675 0.969667 8.08675C0.97172 8.08675 0.973772 8.08675 0.975781 8.08675C1.39869 8.08348 1.73889 7.74369 1.73557 7.32753L1.69042 1.51263L7.59975 1.55706C7.60154 1.55706 7.60359 1.55706 7.6056 1.55706C8.02567 1.55706 8.36792 1.22353 8.37124 0.809401C8.3746 0.393292 8.0344 0.053496 7.61149 0.0502304Z" fill="#8B8B8B"/>
<path d="M7.99378 14.1342C7.69466 13.8399 7.20975 13.8399 6.9109 14.1342L0.224139 20.7139C-0.0747131 21.0079 -0.0747131 21.4848 0.224139 21.7792C0.373697 21.9264 0.569715 22 0.765733 22C0.961489 22 1.15751 21.9264 1.30706 21.7792L7.99378 15.1996C8.29263 14.9055 8.29289 14.4286 7.99378 14.1342Z" fill="#8B8B8B"/>
<path d="M7.44659 20.4429L1.53727 20.4871L1.58247 14.6722C1.58578 14.2563 1.24558 13.9165 0.822672 13.9133C0.820881 13.9133 0.818829 13.9133 0.81682 13.9133C0.39675 13.9133 0.0544936 14.247 0.0511749 14.6612L8.52957e-05 21.2407C-0.00144303 21.4424 0.0791671 21.6363 0.224139 21.7792C0.367845 21.9208 0.562815 22 0.765733 22C0.767523 22 0.769617 22 0.771626 22L7.45834 21.9497C7.88125 21.9467 8.22145 21.6067 8.21813 21.1908C8.21482 20.7744 7.86334 20.4436 7.44659 20.4429Z" fill="#8B8B8B"/>
</svg>
