<svg width="190" height="30" viewBox="0 0 190 30" fill="none" xmlns="http://www.w3.org/2000/svg">
<path d="M30 28.5C30 29.325 29.325 30 28.5 30H1.5C0.675 30 0 29.325 0 28.5V1.5C0 0.675 0.675 0 1.5 0H28.5C29.325 0 30 0.675 30 1.5V28.5Z" fill="#F1F2F2"/>
<path d="M19.5156 21.7506L19.8642 21.7419L20.2077 21.7167L20.5446 21.6742L20.8806 21.6141L21.2064 21.5391L21.5271 21.4483L21.8415 21.3412L22.1481 21.2203L22.4487 21.0837L22.7406 20.9362L23.0229 20.7717L23.2983 20.5962L23.5626 20.4075L23.8179 20.2072L24.0636 19.9951L24.2979 19.7701L24.5235 19.5354L24.735 19.2888L24.936 19.0345L25.1247 18.7699L25.2999 18.4945L25.464 18.2121L25.6116 17.9202L25.7481 17.6203L25.8687 17.3125L25.9761 16.9984L26.0679 16.6774L26.1429 16.3516L26.2017 16.0174L26.2446 15.6799L26.2698 15.3363L26.2794 14.9875L26.2698 14.6416L26.2446 14.3002L26.2017 13.963L26.1429 13.6327L26.0679 13.3072L25.9761 12.988L25.8687 12.6742L25.7481 12.3688L25.6116 12.0709L25.464 11.779L25.2999 11.4991L25.1247 11.2237L24.936 10.9594L24.735 10.7065L24.5235 10.4611L24.2979 10.2259L24.0636 10.0027L23.8179 9.79115L23.5626 9.59045L23.2983 9.40175L23.0229 9.22625L22.7406 9.06455L22.4487 8.91695L22.1481 8.77985L21.8415 8.65925L21.5271 8.55215L21.2064 8.46125L20.8806 8.38625L20.5446 8.32685L20.2077 8.28365L19.8642 8.25845L19.5156 8.24945L19.1694 8.25845L18.8259 8.28365L18.489 8.32685L18.1563 8.38625L17.8308 8.46125L17.5092 8.55215L17.1975 8.65925L16.89 8.77985L16.5921 8.91695L16.3029 9.06455L16.02 9.22625L15.7467 9.40175L15.4827 9.59045L15.2277 9.79115L14.9838 10.0027L14.7495 10.2259L14.5263 10.4611L14.3148 10.7065L14.1144 10.9594L13.9275 11.2237L13.7517 11.4991L13.5906 11.779L13.44 12.0709L13.3059 12.3688L13.185 12.6742L13.0803 12.988L12.9894 13.3072L12.9138 13.6327L12.8547 13.963L12.8118 14.3002L12.7866 14.6416L12.7773 14.9875L12.7866 15.3363L12.8118 15.6799L12.8547 16.0174L12.9138 16.3516L12.9894 16.6774L13.0803 16.9984L13.185 17.3125L13.3059 17.6203L13.44 17.9202L13.5906 18.2121L13.7517 18.4945L13.9275 18.7699L14.1144 19.0345L14.3148 19.2888L14.5263 19.5354L14.7495 19.7701L14.9838 19.9951L15.2277 20.2072L15.4827 20.4075L15.7467 20.5962L16.02 20.7717L16.3029 20.9362L16.5921 21.0837L16.89 21.2203L17.1975 21.3412L17.5092 21.4483L17.8308 21.5391L18.1563 21.6141L18.489 21.6742L18.8259 21.7167L19.1694 21.7419L19.5156 21.7506Z" fill="#FBB231"/>
<path d="M10.4842 21.7506L10.8301 21.7419L11.1739 21.7167L11.5114 21.6742L11.8435 21.6141L12.1693 21.5391L12.49 21.4483L12.8023 21.3412L13.1098 21.2203L13.408 21.0837L13.6975 20.9362L13.9795 20.7717L14.2531 20.5962L14.5174 20.4075L14.7721 20.2072L15.016 19.9951L15.2503 19.7701L15.4735 19.5354L15.6856 19.2888L15.8854 19.0345L16.0723 18.7699L16.2475 18.4945L16.4092 18.2121L16.5598 17.9202L16.6936 17.6203L16.8148 17.3125L16.9192 16.9984L17.0104 16.6774L17.086 16.3516L17.1442 16.0174L17.1886 15.6799L17.2132 15.3363L17.2219 14.9875L17.2132 14.6416L17.1886 14.3002L17.1442 13.963L17.086 13.6327L17.0104 13.3072L16.9192 12.988L16.8148 12.6742L16.6936 12.3688L16.5598 12.0709L16.4092 11.779L16.2475 11.4991L16.0723 11.2237L15.8854 10.9594L15.6856 10.7065L15.4735 10.4611L15.2503 10.2259L15.016 10.0027L14.7721 9.79115L14.5174 9.59045L14.2531 9.40175L13.9795 9.22625L13.6975 9.06455L13.408 8.91695L13.1098 8.77985L12.8023 8.65925L12.49 8.55215L12.1693 8.46125L11.8435 8.38625L11.5114 8.32685L11.1739 8.28365L10.8301 8.25845L10.4842 8.24945L10.1356 8.25845L9.7918 8.28365L9.4549 8.32685L9.1195 8.38625L8.7943 8.46125L8.4733 8.55215L8.1586 8.65925L7.8517 8.77985L7.5511 8.91695L7.2598 9.06455L6.9775 9.22625L6.7015 9.40175L6.4372 9.59045L6.1822 9.79115L5.9362 10.0027L5.7019 10.2259L5.4763 10.4611L5.2648 10.7065L5.0644 10.9594L4.8751 11.2237L4.6999 11.4991L4.5358 11.779L4.3882 12.0709L4.2511 12.3688L4.1311 12.6742L4.0237 12.988L3.9322 13.3072L3.8572 13.6327L3.7981 13.963L3.7549 14.3002L3.7297 14.6416L3.7207 14.9875L3.7297 15.3363L3.7549 15.6799L3.7981 16.0174L3.8572 16.3516L3.9322 16.6774L4.0237 16.9984L4.1311 17.3125L4.2511 17.6203L4.3882 17.9202L4.5358 18.2121L4.6999 18.4945L4.8751 18.7699L5.0644 19.0345L5.2648 19.2888L5.4763 19.5354L5.7019 19.7701L5.9362 19.9951L6.1822 20.2072L6.4372 20.4075L6.7015 20.5962L6.9775 20.7717L7.2598 20.9362L7.5511 21.0837L7.8517 21.2203L8.1586 21.3412L8.4733 21.4483L8.7943 21.5391L9.1195 21.6141L9.4549 21.6742L9.7918 21.7167L10.1356 21.7419L10.4842 21.7506Z" fill="#EC1C2E"/>
<path d="M14.21 10.8384H17.7971V10.4718H14.5193L14.21 10.8384Z" fill="#FBB231"/>
<path d="M13.6719 11.6536H17.7963V11.287H13.8882L13.6719 11.6536Z" fill="#FBB231"/>
<path d="M13.2705 12.4669H17.7963V12.1H13.4307L13.2705 12.4669Z" fill="#FBB231"/>
<path d="M12.9951 13.282H17.7963V12.9154H13.1094L12.9951 13.282Z" fill="#FBB231"/>
<path d="M13.1553 17.2218H17.8071V16.8552H13.041L13.1553 17.2218Z" fill="#FBB231"/>
<path d="M13.4985 18.0369H17.8071V17.67H13.3281L13.4985 18.0369Z" fill="#FBB231"/>
<path d="M13.9821 18.85H17.808V18.4834H13.752L13.9821 18.85Z" fill="#FBB231"/>
<path d="M14.6472 19.665H17.808V19.296H14.3262L14.6472 19.665Z" fill="#FBB231"/>
<path d="M12.834 14.095H17.7963V13.7284H12.9045L12.834 14.095Z" fill="#FBB231"/>
<path d="M15.8584 16.4085H17.7508V16.0419H15.9268L15.8584 16.4085Z" fill="#FBB231"/>
<path d="M16.0078 15.5953H17.7502V15.2266H16.0768L16.0078 15.5953Z" fill="#FBB231"/>
<path d="M12.709 15.2266H13.2007V15.5953H12.7318L12.709 15.2266Z" fill="#FBB231"/>
<path d="M11.7904 14.7825L11.7586 14.7801L11.7265 14.7756L11.6971 14.7714L11.668 14.7666L11.6404 14.7624L11.611 14.7576L11.581 14.7531L11.5489 14.7486L11.5174 14.7441L11.4808 14.7417L11.44 14.7393L11.3971 14.7372H11.3491L11.2963 14.7393L11.2372 14.7441L11.1715 14.7486L11.1259 14.7555L11.0824 14.7624L11.0437 14.7756L11.0092 14.7891L10.9777 14.8053L10.9483 14.8236L10.9255 14.8467L10.9051 14.8668L10.891 14.892L10.8793 14.9169L10.8751 14.9442V14.9718L10.882 15.0012L10.891 15.0309L10.909 15.0606L10.9318 15.09L10.9777 15.1332L11.0326 15.1677L11.0959 15.1971L11.1646 15.222L11.2372 15.2448L11.3128 15.27L11.3878 15.2976L11.4604 15.3267L11.5291 15.3654L11.5924 15.4131L11.6497 15.4704L11.6971 15.5409L11.7334 15.6273L11.7562 15.7302L11.7658 15.8532L11.7562 15.9966L11.7406 16.1034L11.713 16.197L11.6767 16.2831L11.6308 16.3581L11.5789 16.425L11.5195 16.4814L11.4556 16.5315L11.3854 16.575L11.3128 16.6092L11.2372 16.6383L11.1598 16.6614L11.0803 16.6794L11.0029 16.6935L10.9273 16.7001L10.8523 16.7052L10.7818 16.7067H10.684L10.5928 16.7052H10.513L10.438 16.7025L10.3693 16.7001L10.3078 16.6956L10.2535 16.6908L10.2013 16.6842L10.1533 16.6794L10.1098 16.6704L10.0672 16.6632L10.0279 16.6524L9.98923 16.6431L9.95293 16.6296L9.91663 16.6158L9.87793 16.602L9.98053 16.0992L10.0009 16.1034L10.0261 16.1106L10.0576 16.119L10.0963 16.1286L10.1374 16.1376L10.1824 16.1469L10.2328 16.1577L10.2874 16.1673L10.3441 16.176L10.4035 16.1856L10.4656 16.1925L10.5289 16.1991L10.5949 16.2012L10.6612 16.2036H10.7275L10.7929 16.2012L10.8592 16.1877L10.912 16.1694L10.9531 16.1442L10.9846 16.1124L11.0068 16.0806L11.0251 16.044L11.0368 16.0077L11.0461 15.9738L11.0503 15.9075L11.0299 15.8505L10.9912 15.8052L10.9342 15.7665L10.8664 15.7323L10.786 15.6981L10.6975 15.6663L10.6084 15.63L10.5178 15.5889L10.4308 15.5409L10.3513 15.4815L10.2787 15.4113L10.2211 15.3246L10.1806 15.222L10.1602 15.0996L10.1626 14.9535L10.1737 14.8647L10.1896 14.7801L10.2124 14.703L10.24 14.6301L10.2763 14.562L10.3174 14.5026L10.3654 14.4456L10.4221 14.3958L10.4884 14.3523L10.561 14.3157L10.6429 14.2818L10.7344 14.2569L10.8364 14.2362L10.9483 14.2203L11.0707 14.2113L11.2054 14.2086H11.2894L11.3668 14.2113L11.4376 14.2134L11.5015 14.2158L11.5582 14.2203L11.611 14.2248L11.656 14.2293L11.6971 14.2341L11.7358 14.2383L11.7676 14.2452L11.7979 14.25L11.8249 14.2542L11.8471 14.2587L11.8681 14.2614L11.8888 14.2659L11.9062 14.2683L11.7904 14.7825Z" fill="white"/>
<path d="M11.7904 14.7825L11.7586 14.7801L11.7265 14.7756L11.6971 14.7714L11.668 14.7666L11.6404 14.7624L11.611 14.7576L11.581 14.7531L11.5489 14.7486L11.5174 14.7441L11.4808 14.7417L11.44 14.7393L11.3971 14.7372H11.3491L11.2963 14.7393L11.2372 14.7441L11.1715 14.7486L11.1259 14.7555L11.0824 14.7624L11.0437 14.7756L11.0092 14.7891L10.9777 14.8053L10.9483 14.8236L10.9255 14.8467L10.9051 14.8668L10.891 14.892L10.8793 14.9169L10.8751 14.9442V14.9718L10.882 15.0012L10.891 15.0309L10.909 15.0606L10.9318 15.09L10.9777 15.1332L11.0326 15.1677L11.0959 15.1971L11.1646 15.222L11.2372 15.2448L11.3128 15.27L11.3878 15.2976L11.4604 15.3267L11.5291 15.3654L11.5924 15.4131L11.6497 15.4704L11.6971 15.5409L11.7334 15.6273L11.7562 15.7302L11.7658 15.8532L11.7562 15.9966L11.7406 16.1034L11.713 16.197L11.6767 16.2831L11.6308 16.3581L11.5789 16.425L11.5195 16.4814L11.4556 16.5315L11.3854 16.575L11.3128 16.6092L11.2372 16.6383L11.1598 16.6614L11.0803 16.6794L11.0029 16.6935L10.9273 16.7001L10.8523 16.7052L10.7818 16.7067H10.684L10.5928 16.7052H10.513L10.438 16.7025L10.3693 16.7001L10.3078 16.6956L10.2535 16.6908L10.2013 16.6842L10.1533 16.6794L10.1098 16.6704L10.0672 16.6632L10.0279 16.6524L9.98923 16.6431L9.95293 16.6296L9.91663 16.6158L9.87793 16.602L9.98053 16.0992L10.0009 16.1034L10.0261 16.1106L10.0576 16.119L10.0963 16.1286L10.1374 16.1376L10.1824 16.1469L10.2328 16.1577L10.2874 16.1673L10.3441 16.176L10.4035 16.1856L10.4656 16.1925L10.5289 16.1991L10.5949 16.2012L10.6612 16.2036H10.7275L10.7929 16.2012L10.8592 16.1877L10.912 16.1694L10.9531 16.1442L10.9846 16.1124L11.0068 16.0806L11.0251 16.044L11.0368 16.0077L11.0461 15.9738L11.0503 15.9075L11.0299 15.8505L10.9912 15.8052L10.9342 15.7665L10.8664 15.7323L10.786 15.6981L10.6975 15.6663L10.6084 15.63L10.5178 15.5889L10.4308 15.5409L10.3513 15.4815L10.2787 15.4113L10.2211 15.3246L10.1806 15.222L10.1602 15.0996L10.1626 14.9535L10.1737 14.8647L10.1896 14.7801L10.2124 14.703L10.24 14.6301L10.2763 14.562L10.3174 14.5026L10.3654 14.4456L10.4221 14.3958L10.4884 14.3523L10.561 14.3157L10.6429 14.2818L10.7344 14.2569L10.8364 14.2362L10.9483 14.2203L11.0707 14.2113L11.2054 14.2086H11.2894L11.3668 14.2113L11.4376 14.2134L11.5015 14.2158L11.5582 14.2203L11.611 14.2248L11.656 14.2293L11.6971 14.2341L11.7358 14.2383L11.7676 14.2452L11.7979 14.25L11.8249 14.2542L11.8471 14.2587L11.8681 14.2614L11.8888 14.2659L11.9062 14.2683L11.7904 14.7825Z" stroke="white" stroke-width="0.216" stroke-miterlimit="2.6131"/>
<path d="M12.3306 13.7058H12.9612L12.8682 14.2569H13.2483L13.1664 14.7714L12.7656 14.76L12.5469 16.0308L12.5445 16.0761L12.5556 16.1148L12.5787 16.1442L12.6084 16.1694L12.6495 16.1856L12.6951 16.1991L12.7449 16.2081L12.7995 16.2129L12.8499 16.2108L12.8955 16.206L12.936 16.1991L12.9729 16.1898L13.0023 16.1808L13.0227 16.1742L13.0362 16.1694L13.041 16.1673L12.9612 16.5909L12.9453 16.602L12.9297 16.6113L12.9132 16.62L12.8973 16.6296L12.8814 16.6362L12.8634 16.6431L12.843 16.65L12.8223 16.6569L12.7995 16.6632L12.7767 16.6683L12.7497 16.6728L12.7221 16.6773L12.6924 16.6821L12.6582 16.6866L12.6219 16.6908L12.5832 16.6956H12.4104L12.3189 16.6884L12.2394 16.6794L12.1668 16.6659L12.1053 16.65L12.0525 16.6296L12.0096 16.6071L11.9709 16.5798L11.9412 16.5498L11.9181 16.5183L11.9025 16.4796L11.8908 16.44L11.8842 16.3974L11.8818 16.3494V16.2996L11.889 16.2471L11.8953 16.1898L12.3306 13.7058Z" fill="white"/>
<path d="M12.3306 13.7058H12.9612L12.8682 14.2569H13.2483L13.1664 14.7714L12.7656 14.76L12.5469 16.0308L12.5445 16.0761L12.5556 16.1148L12.5787 16.1442L12.6084 16.1694L12.6495 16.1856L12.6951 16.1991L12.7449 16.2081L12.7995 16.2129L12.8499 16.2108L12.8955 16.206L12.936 16.1991L12.9729 16.1898L13.0023 16.1808L13.0227 16.1742L13.0362 16.1694L13.041 16.1673L12.9612 16.5909L12.9453 16.602L12.9297 16.6113L12.9132 16.62L12.8973 16.6296L12.8814 16.6362L12.8634 16.6431L12.843 16.65L12.8223 16.6569L12.7995 16.6632L12.7767 16.6683L12.7497 16.6728L12.7221 16.6773L12.6924 16.6821L12.6582 16.6866L12.6219 16.6908L12.5832 16.6956H12.4104L12.3189 16.6884L12.2394 16.6794L12.1668 16.6659L12.1053 16.65L12.0525 16.6296L12.0096 16.6071L11.9709 16.5798L11.9412 16.5498L11.9181 16.5183L11.9025 16.4796L11.8908 16.44L11.8842 16.3974L11.8818 16.3494V16.2996L11.889 16.2471L11.8953 16.1898L12.3306 13.7058Z" stroke="white" stroke-width="0.216" stroke-miterlimit="2.6131"/>
<path d="M13.7514 15.63L13.7454 15.6687L13.7433 15.7092L13.7466 15.7524L13.7559 15.7956L13.7724 15.8391L13.7907 15.8808L13.8153 15.9237L13.8429 15.9624L13.875 16.0011L13.9089 16.0356L13.9452 16.0692L13.9863 16.0962L14.0268 16.122L14.073 16.1421L14.1183 16.1577L14.1639 16.1673L14.2236 16.176L14.28 16.1829L14.3391 16.1898L14.3988 16.1946L14.4573 16.197H14.5188L14.5788 16.1946L14.6397 16.1898L14.7012 16.1808L14.7633 16.1694L14.8266 16.1562L14.8881 16.1355L14.952 16.1106L15.0183 16.0827L15.0813 16.0467L15.1482 16.0077L15.0567 16.5681L15.0204 16.5864L14.9835 16.605L14.9472 16.6179L14.9133 16.6317L14.8794 16.6431L14.8425 16.6548L14.8059 16.6632L14.7675 16.6704L14.7264 16.6773L14.6808 16.6821L14.6331 16.6866L14.5806 16.6908L14.5212 16.6935H14.4597L14.3895 16.6956H14.3145L14.2026 16.6935L14.0889 16.6821L13.9752 16.6659L13.8609 16.6383L13.7496 16.605L13.6425 16.5612L13.5399 16.5042L13.4442 16.4379L13.3554 16.3608L13.278 16.2675L13.2123 16.1625L13.1571 16.0419L13.1184 15.9075L13.0935 15.7548L13.0869 15.5865L13.098 15.3999L13.1073 15.3267L13.1208 15.2427L13.1391 15.1542L13.1643 15.0579L13.1988 14.9607L13.2393 14.8626L13.2921 14.7624L13.3554 14.6667L13.4286 14.5752L13.5171 14.4888L13.6173 14.4117L13.7313 14.3433L13.8633 14.2863L14.0115 14.2452L14.1756 14.2182L14.3601 14.2086L14.4486 14.2113L14.5425 14.2203L14.6349 14.2362L14.7288 14.2587L14.82 14.2932L14.9085 14.3343L14.9907 14.3886L15.0657 14.4522L15.1341 14.5299L15.1914 14.6214L15.2367 14.7258L15.2685 14.8467L15.2865 14.9829L15.2889 15.1374L15.273 15.3108L15.2391 15.5022L15.2274 15.6411H13.5675L13.6722 15.1923H14.6694L14.6742 15.1359L14.6718 15.081L14.6673 15.0309L14.6583 14.9856L14.6421 14.9421L14.6262 14.9031L14.6034 14.8692L14.5806 14.8374L14.5536 14.8101L14.5236 14.7873L14.4897 14.7666L14.4552 14.7486L14.4192 14.7351L14.3823 14.7258L14.3436 14.7189L14.3034 14.7141L14.2593 14.7165L14.2188 14.7237L14.1804 14.733L14.1417 14.7462L14.1024 14.7642L14.0685 14.7852L14.0337 14.8101L14.0052 14.8374L13.9752 14.8692L13.9476 14.9031L13.923 14.9397L13.902 14.9787L13.8813 15.0198L13.8657 15.0651L13.8522 15.1107L13.8429 15.1581L13.7514 15.63Z" stroke="white" stroke-width="0.216" stroke-miterlimit="2.6131"/>
<path d="M19.1826 14.3934L19.1532 14.3775L19.1238 14.3634L19.0926 14.3478L19.0572 14.3316L19.0236 14.3181L18.9849 14.3043L18.9462 14.2905L18.9057 14.277L18.8619 14.2659L18.8184 14.2569L18.7701 14.2476L18.723 14.2407L18.6705 14.2362L18.6186 14.2317H18.5637H18.5064H18.45L18.3903 14.2362L18.3297 14.2431L18.2649 14.2542L18.2016 14.2725L18.1377 14.2977L18.0744 14.3295L18.0099 14.3703L17.9484 14.4207L17.8893 14.4798L17.832 14.5527L17.7781 14.637L17.7276 14.7372L17.6805 14.8506L17.6373 14.9787L17.6004 15.1245L17.587 15.2064L17.5776 15.2859L17.5728 15.3654L17.5752 15.4431L17.5818 15.5202L17.598 15.5937L17.6184 15.6618L17.6436 15.7302L17.6778 15.7917L17.7186 15.8505L17.7672 15.903L17.8212 15.9507L17.8824 15.9921L17.9532 16.026L18.0309 16.056L18.1182 16.0761L18.147 16.0827L18.1809 16.0896L18.222 16.0944L18.2682 16.0992L18.318 16.1034H18.3693H18.4272L18.4839 16.0992L18.5436 16.0917L18.6024 16.0806L18.6591 16.0647L18.7164 16.0467L18.7728 16.0212L18.8256 15.9921L18.873 15.9558L18.9186 15.9144L18.8166 16.5228L18.8028 16.5339L18.7887 16.5477L18.7701 16.5636L18.75 16.5768L18.7254 16.5948L18.6936 16.6113L18.6564 16.6272L18.6162 16.6407L18.5637 16.6569L18.5049 16.6683L18.4359 16.6773L18.3561 16.6866L18.2682 16.6908L18.1653 16.6935L18.0492 16.6908L17.9205 16.6842L17.817 16.6728L17.7117 16.65L17.6064 16.6158L17.5026 16.5702L17.4025 16.5159L17.3065 16.4472L17.2156 16.3677L17.131 16.2768L17.056 16.1742L16.9927 16.0605L16.9378 15.9327L16.8967 15.7938L16.8694 15.6411L16.8604 15.4794L16.8652 15.3018L16.8898 15.1128L16.9081 15.0198L16.9294 14.9286L16.9513 14.8395L16.9741 14.7555L16.9993 14.6754L17.029 14.5962L17.0581 14.5209L17.0902 14.4501L17.1247 14.3796L17.1583 14.3133L17.1973 14.25L17.2384 14.1906L17.2798 14.1336L17.3245 14.079L17.3698 14.0289L17.4187 13.9812L17.47 13.9356L17.523 13.8924L17.5776 13.8534L17.6349 13.8171L17.6955 13.7829L17.7571 13.7535L17.8212 13.7262L17.8875 13.7007L17.9574 13.6782L18.0282 13.6602L18.1014 13.644L18.1791 13.6305L18.2559 13.6188L18.3381 13.6101L18.4197 13.6056L18.5064 13.6029L18.5799 13.6056L18.6504 13.6101L18.7185 13.6167L18.7869 13.626L18.8508 13.635L18.9123 13.6488L18.9705 13.6602L19.026 13.6737L19.0782 13.6875L19.1238 13.7007L19.1676 13.7148L19.2039 13.7283L19.2351 13.7394L19.2627 13.749L19.2828 13.758L19.2972 13.7625L19.1826 14.3934Z" fill="white"/>
<path d="M19.1826 14.3934L19.1532 14.3775L19.1238 14.3634L19.0926 14.3478L19.0572 14.3316L19.0236 14.3181L18.9849 14.3043L18.9462 14.2905L18.9057 14.277L18.8619 14.2659L18.8184 14.2569L18.7701 14.2476L18.723 14.2407L18.6705 14.2362L18.6186 14.2317H18.5637H18.5064H18.45L18.3903 14.2362L18.3297 14.2431L18.2649 14.2542L18.2016 14.2725L18.1377 14.2977L18.0744 14.3295L18.0099 14.3703L17.9484 14.4207L17.8893 14.4798L17.832 14.5527L17.778 14.637L17.7276 14.7372L17.6805 14.8506L17.6373 14.9787L17.6004 15.1245L17.587 15.2064L17.5776 15.2859L17.5728 15.3654L17.5752 15.4431L17.5818 15.5202L17.598 15.5937L17.6184 15.6618L17.6436 15.7302L17.6778 15.7917L17.7186 15.8505L17.7672 15.903L17.8212 15.9507L17.8824 15.9921L17.9532 16.026L18.0309 16.056L18.1182 16.0761L18.147 16.0827L18.1809 16.0896L18.222 16.0944L18.2682 16.0992L18.318 16.1034H18.3693H18.4272L18.4839 16.0992L18.5436 16.0917L18.6024 16.0806L18.6591 16.0647L18.7164 16.0467L18.7728 16.0212L18.8256 15.9921L18.873 15.9558L18.9186 15.9144L18.8166 16.5228L18.8028 16.5339L18.7887 16.5477L18.7701 16.5636L18.75 16.5768L18.7254 16.5948L18.6936 16.6113L18.6564 16.6272L18.6162 16.6407L18.5637 16.6569L18.5049 16.6683L18.4359 16.6773L18.3561 16.6866L18.2682 16.6908L18.1653 16.6935L18.0492 16.6908L17.9205 16.6842L17.817 16.6728L17.7117 16.65L17.6064 16.6158L17.5026 16.5702L17.4025 16.5159L17.3065 16.4472L17.2156 16.3677L17.131 16.2768L17.056 16.1742L16.9927 16.0605L16.9378 15.9327L16.8967 15.7938L16.8694 15.6411L16.8604 15.4794L16.8652 15.3018L16.8898 15.1128L16.9081 15.0198L16.9294 14.9286L16.9513 14.8395L16.9741 14.7555L16.9993 14.6754L17.029 14.5962L17.0581 14.5209L17.0902 14.4501L17.1247 14.3796L17.1583 14.3133L17.1973 14.25L17.2384 14.1906L17.2798 14.1336L17.3245 14.079L17.3698 14.0289L17.4187 13.9812L17.47 13.9356L17.523 13.8924L17.5776 13.8534L17.6349 13.8171L17.6955 13.7829L17.7571 13.7535L17.8212 13.7262L17.8875 13.7007L17.9574 13.6782L18.0282 13.6602L18.1014 13.644L18.1791 13.6305L18.2559 13.6188L18.3381 13.6101L18.4197 13.6056L18.5064 13.6029L18.5799 13.6056L18.6504 13.6101L18.7185 13.6167L18.7869 13.626L18.8508 13.635L18.9123 13.6488L18.9705 13.6602L19.026 13.6737L19.0782 13.6875L19.1238 13.7007L19.1676 13.7148L19.2039 13.7283L19.2351 13.7394L19.2627 13.749L19.2828 13.758L19.2972 13.7625L19.1826 14.3934Z" stroke="white" stroke-width="0.216" stroke-miterlimit="2.6131"/>
<path d="M24.7891 16.6957H24.1585L24.2047 16.4434V16.4197L24.1678 16.4659L24.1297 16.5064L24.091 16.543L24.0496 16.5751L24.0076 16.6051L23.9674 16.6297L23.926 16.6501L23.8822 16.6705L23.8399 16.6867L23.7964 16.6981L23.7535 16.7092L23.707 16.7158L23.6617 16.723L23.6182 16.7275L23.5732 16.7299H23.5276L23.4091 16.7203L23.3002 16.6957L23.2 16.657L23.1085 16.6051L23.0266 16.5382L22.9543 16.4614L22.8901 16.3765L22.8355 16.2814L22.7899 16.1785L22.7539 16.072L22.7287 15.9604L22.7101 15.844L22.7041 15.7276L22.7059 15.6097L22.7176 15.4936L22.7377 15.3772L22.7716 15.2428L22.8133 15.1153L22.8601 14.9992L22.918 14.8897L22.9768 14.7874L23.0443 14.6962L23.116 14.6143L23.191 14.539L23.2699 14.473L23.3551 14.416L23.4418 14.3659L23.5276 14.3272L23.6182 14.2954L23.7097 14.275L23.8012 14.2615L23.8939 14.257L23.9605 14.2588L24.0238 14.266L24.0835 14.2771L24.1387 14.2933L24.1903 14.3119L24.2359 14.3317L24.2812 14.3572L24.3226 14.3821L24.3589 14.4091L24.3934 14.4388L24.4222 14.4685L24.4498 14.4982L24.4726 14.5276L24.4933 14.5573L24.5113 14.5849L24.5254 14.6122L24.6847 13.717H25.3045L24.7891 16.6957Z" fill="white"/>
<path d="M24.7891 16.6957H24.1585L24.2047 16.4434V16.4197L24.1678 16.4659L24.1297 16.5064L24.091 16.543L24.0496 16.5751L24.0076 16.6051L23.9674 16.6297L23.926 16.6501L23.8822 16.6705L23.8399 16.6867L23.7964 16.6981L23.7535 16.7092L23.707 16.7158L23.6617 16.723L23.6182 16.7275L23.5732 16.7299H23.5276L23.4091 16.7203L23.3002 16.6957L23.2 16.657L23.1085 16.6051L23.0266 16.5382L22.9543 16.4614L22.8901 16.3765L22.8355 16.2814L22.7899 16.1785L22.7539 16.072L22.7287 15.9604L22.7101 15.844L22.7041 15.7276L22.7059 15.6097L22.7176 15.4936L22.7377 15.3772L22.7716 15.2428L22.8133 15.1153L22.8601 14.9992L22.918 14.8897L22.9768 14.7874L23.0443 14.6962L23.116 14.6143L23.191 14.539L23.2699 14.473L23.3551 14.416L23.4418 14.3659L23.5276 14.3272L23.6182 14.2954L23.7097 14.275L23.8012 14.2615L23.8939 14.257L23.9605 14.2588L24.0238 14.266L24.0835 14.2771L24.1387 14.2933L24.1903 14.3119L24.2359 14.3317L24.2812 14.3572L24.3226 14.3821L24.3589 14.4091L24.3934 14.4388L24.4222 14.4685L24.4498 14.4982L24.4726 14.5276L24.4933 14.5573L24.5113 14.5849L24.5254 14.6122L24.6847 13.717H25.3045L24.7891 16.6957Z" stroke="white" stroke-width="0.216" stroke-miterlimit="2.6131"/>
<path d="M23.7578 16.1442L23.822 16.14L23.8811 16.1262L23.9357 16.1106L23.9885 16.0854L24.0359 16.0581L24.0812 16.0239L24.1244 15.9855L24.1637 15.9438L24.1976 15.8985L24.2297 15.8484L24.2591 15.7956L24.2843 15.7419L24.3062 15.6843L24.3254 15.6252L24.3416 15.5637L24.3524 15.5022L24.3635 15.4386L24.3707 15.3729V15.3108L24.3686 15.2475L24.3617 15.1881L24.3524 15.1311L24.3365 15.0762L24.3188 15.0243L24.2951 14.9787L24.2687 14.9355L24.2387 14.8986L24.2051 14.8668L24.1664 14.8395L24.1244 14.8215L24.0812 14.8101L24.0332 14.8053L23.972 14.8101L23.9153 14.8191L23.8631 14.8374L23.8103 14.8602L23.7647 14.8896L23.7191 14.9262L23.6813 14.9649L23.6426 15.0084L23.6072 15.0579L23.576 15.1107L23.5457 15.165L23.5205 15.2244L23.4986 15.2859L23.4809 15.3477L23.4623 15.4131L23.4482 15.4794L23.4365 15.5802L23.4422 15.6891L23.4572 15.8004L23.4869 15.9075L23.5322 16.0011L23.5922 16.0761L23.6672 16.1262L23.7578 16.1442Z" fill="#FBB231"/>
<path d="M9.77402 16.1898L9.68252 16.6956H9.10892L9.12482 16.602L9.13652 16.5183L9.14522 16.4544L9.15482 16.4196L9.12302 16.4565L9.08612 16.4931L9.04352 16.527L8.99522 16.5585L8.94092 16.5909L8.88332 16.6179L8.82422 16.6452L8.76332 16.6683L8.69702 16.6884L8.63102 16.7052L8.56532 16.7187L8.49662 16.7274L8.43062 16.7319L8.36492 16.7343L8.30102 16.7274L8.23892 16.7187L8.15912 16.698L8.08652 16.6749L8.02262 16.6452L7.96592 16.6113L7.91612 16.575L7.87022 16.5339L7.83392 16.4904L7.80182 16.4448L7.77482 16.3974L7.75202 16.347L7.73372 16.2972L7.72022 16.2471L7.71092 16.1946L7.70402 16.1421L7.69922 16.0917V16.0419L7.70642 15.9528L7.72022 15.8688L7.74272 15.789L7.77242 15.7119L7.80872 15.6387L7.84982 15.573L7.89782 15.5094L7.95242 15.4521L8.00912 15.3999L8.07302 15.3516L8.13872 15.3087L8.20712 15.2721L8.28002 15.2406L8.35562 15.2151L8.43272 15.195L8.51252 15.1812H8.51732L8.52842 15.1788L8.54402 15.1764L8.56922 15.1746L8.59682 15.1698L8.62862 15.1677L8.66252 15.1629L8.70182 15.1581L8.74052 15.1542L8.77922 15.1497L8.82002 15.147L8.85662 15.1425L8.89292 15.1401L8.92682 15.1374L8.95832 15.1359H8.98352H9.03632L9.09152 15.1374L9.14132 15.1401H9.19112L9.23192 15.1425L9.26432 15.1446L9.28652 15.147H9.29372L9.29822 15.1311L9.31172 15.09L9.32342 15.042L9.32762 14.9991L9.31892 14.9493L9.29822 14.9031L9.27062 14.8626L9.23432 14.8281L9.19112 14.799L9.14372 14.778L9.08852 14.7642L9.02942 14.76L8.96552 14.7576L8.89682 14.7555H8.82662L8.75402 14.7576L8.67902 14.7624L8.60582 14.769L8.53292 14.7756L8.46212 14.7852L8.39402 14.7939L8.32802 14.8053L8.26892 14.8164L8.21432 14.8281L8.16392 14.8422L8.12342 14.8554L8.09132 14.8716L8.06612 14.8851L8.22782 14.3364L8.27822 14.3157L8.32802 14.2977L8.38292 14.2818L8.43752 14.2701L8.49212 14.2587L8.55122 14.25L8.61032 14.2407L8.67182 14.2362L8.73572 14.2317L8.80142 14.2293L8.86982 14.2266H8.94092H9.01352H9.08852L9.16832 14.2293L9.24782 14.2317L9.31172 14.2362L9.38042 14.2476L9.45122 14.2635L9.52322 14.2842L9.59372 14.3118L9.66272 14.3433L9.73082 14.382L9.79442 14.4249L9.85142 14.4753L9.90182 14.5299L9.94742 14.5911L9.98162 14.6598L10.0044 14.733L10.0179 14.8101V14.8965L10.0044 14.9874L9.77402 16.1898Z" fill="white"/>
<path d="M9.77402 16.1898L9.68252 16.6956H9.10892L9.12482 16.602L9.13652 16.5183L9.14522 16.4544L9.15482 16.4196L9.12302 16.4565L9.08612 16.4931L9.04352 16.527L8.99522 16.5585L8.94092 16.5909L8.88332 16.6179L8.82422 16.6452L8.76332 16.6683L8.69702 16.6884L8.63102 16.7052L8.56532 16.7187L8.49662 16.7274L8.43062 16.7319L8.36492 16.7343L8.30102 16.7274L8.23892 16.7187L8.15912 16.698L8.08652 16.6749L8.02262 16.6452L7.96592 16.6113L7.91612 16.575L7.87022 16.5339L7.83392 16.4904L7.80182 16.4448L7.77482 16.3974L7.75202 16.347L7.73372 16.2972L7.72022 16.2471L7.71092 16.1946L7.70402 16.1421L7.69922 16.0917V16.0419L7.70642 15.9528L7.72022 15.8688L7.74272 15.789L7.77242 15.7119L7.80872 15.6387L7.84982 15.573L7.89782 15.5094L7.95242 15.4521L8.00912 15.3999L8.07302 15.3516L8.13872 15.3087L8.20712 15.2721L8.28002 15.2406L8.35562 15.2151L8.43272 15.195L8.51252 15.1812H8.51732L8.52842 15.1788L8.54402 15.1764L8.56922 15.1746L8.59682 15.1698L8.62862 15.1677L8.66252 15.1629L8.70182 15.1581L8.74052 15.1542L8.77922 15.1497L8.82002 15.147L8.85662 15.1425L8.89292 15.1401L8.92682 15.1374L8.95832 15.1359H8.98352H9.03632L9.09152 15.1374L9.14132 15.1401H9.19112L9.23192 15.1425L9.26432 15.1446L9.28652 15.147H9.29372L9.29822 15.1311L9.31172 15.09L9.32342 15.042L9.32762 14.9991L9.31892 14.9493L9.29822 14.9031L9.27062 14.8626L9.23432 14.8281L9.19112 14.799L9.14372 14.778L9.08852 14.7642L9.02942 14.76L8.96552 14.7576L8.89682 14.7555H8.82662L8.75402 14.7576L8.67902 14.7624L8.60582 14.769L8.53292 14.7756L8.46212 14.7852L8.39402 14.7939L8.32802 14.8053L8.26892 14.8164L8.21432 14.8281L8.16392 14.8422L8.12342 14.8554L8.09132 14.8716L8.06612 14.8851L8.22782 14.3364L8.27822 14.3157L8.32802 14.2977L8.38292 14.2818L8.43752 14.2701L8.49212 14.2587L8.55122 14.25L8.61032 14.2407L8.67182 14.2362L8.73572 14.2317L8.80142 14.2293L8.86982 14.2266H8.94092H9.01352H9.08852L9.16832 14.2293L9.24782 14.2317L9.31172 14.2362L9.38042 14.2476L9.45122 14.2635L9.52322 14.2842L9.59372 14.3118L9.66272 14.3433L9.73082 14.382L9.79442 14.4249L9.85142 14.4753L9.90182 14.5299L9.94742 14.5911L9.98162 14.6598L10.0044 14.733L10.0179 14.8101V14.8965L10.0044 14.9874L9.77402 16.1898Z" stroke="white" stroke-width="0.216" stroke-miterlimit="2.6131"/>
<path d="M9.22533 15.5952L9.22293 15.5844L9.21363 15.573L9.20013 15.5658L9.17733 15.5616L9.15213 15.5571L9.12273 15.5544H9.08823H9.05433L9.01743 15.5571L8.97873 15.5616L8.94243 15.5658L8.90613 15.5706L8.87193 15.5751L8.83983 15.5817L8.81283 15.5889L8.78763 15.5952L8.77173 15.6L8.75373 15.6069L8.72853 15.6165L8.70333 15.6273L8.67393 15.6411L8.64393 15.6573L8.61243 15.6732L8.58243 15.6915L8.55093 15.714L8.52153 15.7368L8.49393 15.7641L8.46873 15.7917L8.44593 15.8208L8.43033 15.8532L8.41623 15.8892L8.40963 15.9258L8.40723 16.0032L8.41893 16.0647L8.44143 16.1106L8.47113 16.1442L8.50533 16.1673L8.54373 16.1808L8.58033 16.1877L8.61723 16.1898L8.68563 16.1877L8.74713 16.1808L8.80623 16.1712L8.85783 16.1577L8.90433 16.1421L8.94693 16.122L8.98563 16.101L9.02013 16.0761L9.05013 16.0533L9.07713 16.026L9.09993 16.0011L9.11823 15.9738L9.13383 15.9462L9.14733 15.9192L9.15903 15.894L9.16563 15.8688L9.18423 15.8031L9.20013 15.7275L9.21363 15.6552L9.22533 15.5952Z" fill="#EC1C2E"/>
<path d="M4.98248 16.6956H4.36328L4.88018 13.7058H5.95748L6.05948 15.4794L6.80438 13.7058H7.92938L7.40078 16.6956H6.78128L7.17278 14.4618H7.14818L6.22118 16.6956H5.52218L5.51828 16.602L5.50178 16.3542L5.48138 16.0011L5.45828 15.5952L5.43548 15.1881L5.41508 14.8308L5.39918 14.5713L5.39438 14.4618H5.38808H5.37458H5.36048L4.98248 16.6956Z" fill="white"/>
<path d="M4.98248 16.6956H4.36328L4.88018 13.7058H5.95748L6.05948 15.4794L6.80438 13.7058H7.92938L7.40078 16.6956H6.78128L7.17278 14.4618H7.14818L6.22118 16.6956H5.52218L5.51828 16.602L5.50178 16.3542L5.48138 16.0011L5.45828 15.5952L5.43548 15.1881L5.41508 14.8308L5.39918 14.5713L5.39438 14.4618H5.38808H5.37458H5.36048L4.98248 16.6956Z" stroke="white" stroke-width="0.216" stroke-miterlimit="2.6131"/>
<path d="M21.0754 16.1898L20.9818 16.6956H20.4103L20.4151 16.602L20.4178 16.5204V16.4589L20.422 16.4313L20.3926 16.4658L20.3572 16.5L20.317 16.5315L20.2714 16.5636L20.2234 16.5933L20.1685 16.62L20.1121 16.6479L20.0557 16.6704L19.9933 16.6884L19.9303 16.7067L19.8664 16.7187L19.8028 16.7274L19.7359 16.7319L19.6726 16.7343L19.6105 16.7274L19.5496 16.7187L19.468 16.698L19.3945 16.6749L19.3309 16.6452L19.2718 16.6113L19.2214 16.575L19.1785 16.5339L19.1422 16.4904L19.1095 16.4448L19.0822 16.3974L19.0621 16.347L19.0435 16.2972L19.0324 16.2471L19.0234 16.1946L19.0168 16.1421L19.0117 16.0917V16.0419L19.0168 15.9528L19.0309 15.8688L19.051 15.789L19.0807 15.7119L19.1143 15.6387L19.1578 15.573L19.2058 15.5094L19.2574 15.4521L19.318 15.3999L19.3789 15.3516L19.4443 15.3087L19.5151 15.2721L19.5859 15.2406L19.6609 15.2151L19.7359 15.195L19.8133 15.1812H19.8184L19.8301 15.1788L19.8451 15.1764L19.8682 15.1746L19.8976 15.1698L19.9303 15.1677L19.9639 15.1629L20.0002 15.1581L20.0389 15.1542L20.0803 15.1497L20.1184 15.147L20.1574 15.1425L20.1937 15.1401L20.2258 15.1374L20.257 15.1359H20.2822H20.3371L20.3926 15.1374L20.4439 15.1401H20.4943L20.5375 15.1425L20.5744 15.1446L20.5945 15.147H20.6047L20.608 15.1311L20.6155 15.09L20.6218 15.042L20.6266 14.9991L20.6176 14.9493L20.5996 14.9031L20.5693 14.8626L20.5351 14.8281L20.4943 14.799L20.4466 14.778L20.3962 14.7642L20.3422 14.76L20.278 14.7576L20.2099 14.7555H20.1391L20.0668 14.7576L19.9912 14.7624L19.9183 14.769L19.8451 14.7756L19.7746 14.7852L19.7062 14.7939L19.6405 14.8053L19.5814 14.8164L19.5268 14.8281L19.4764 14.8422L19.4353 14.8554L19.4041 14.8716L19.3789 14.8851L19.5385 14.3364L19.5883 14.3157L19.6405 14.2977L19.693 14.2818L19.7476 14.2701L19.8049 14.2587L19.8613 14.25L19.9201 14.2407L19.9816 14.2362L20.0455 14.2317L20.1121 14.2293L20.1778 14.2266H20.248H20.3185H20.3926L20.4691 14.2293L20.5468 14.2317L20.6107 14.2362L20.6797 14.2476L20.7496 14.2635L20.8228 14.2842L20.8933 14.3118L20.9635 14.3433L21.0316 14.382L21.0955 14.4249L21.1528 14.4753L21.2059 14.5299L21.2506 14.5911L21.2845 14.6598L21.3097 14.733L21.3256 14.8101V14.8965L21.3145 14.9874L21.0754 16.1898Z" fill="white"/>
<path d="M20.9822 16.7118L20.9957 16.698L21.0893 16.1925L21.0618 16.1877L20.9688 16.6935L20.9822 16.6794V16.7118L20.9936 16.7091L20.9957 16.698L20.9822 16.7118Z" fill="white"/>
<path d="M20.3966 16.6956L20.4107 16.7118H20.9822V16.6794H20.4107L20.4242 16.6956H20.3966L20.3945 16.7118H20.4107L20.3966 16.6956Z" fill="white"/>
<path d="M20.4331 16.4401L20.413 16.4224L20.404 16.459L20.4013 16.5205V16.6021L20.3965 16.6957H20.4241L20.4292 16.6021L20.4331 16.5205L20.431 16.459V16.4401L20.4106 16.4224L20.4331 16.4401Z" fill="white"/>
<path d="M19.5479 16.732L19.6112 16.7416L19.6733 16.7479L19.7366 16.7461L19.8035 16.7416L19.8689 16.732L19.9325 16.7203L19.9958 16.7026L20.06 16.6843L20.1173 16.6615L20.1761 16.6345L20.231 16.6072L20.2787 16.5751L20.3267 16.543L20.3681 16.5115L20.4044 16.4749L20.4335 16.4401L20.411 16.4224L20.3816 16.4566L20.3495 16.4884L20.3081 16.5205L20.2652 16.5523L20.2175 16.5799L20.1626 16.6072L20.1077 16.6345L20.0513 16.657L19.9919 16.675L19.9283 16.6936L19.8644 16.7053L19.8035 16.7137L19.7366 16.7188L19.6733 16.7203L19.6112 16.7137L19.5521 16.7053L19.5479 16.732Z" fill="white"/>
<path d="M18.9961 16.0419L18.9988 16.0917L19.0036 16.1421L19.0099 16.197L19.0189 16.2495L19.0315 16.2996L19.0492 16.3515L19.0693 16.404L19.099 16.4517L19.1314 16.5L19.168 16.5429L19.2133 16.5864L19.2655 16.6227L19.3246 16.6593L19.3909 16.6884L19.4653 16.7118L19.5478 16.7319L19.552 16.7052L19.4701 16.6842L19.4002 16.6614L19.3381 16.6317L19.2793 16.5999L19.2313 16.5636L19.1899 16.5249L19.1536 16.4814L19.1218 16.4379L19.0972 16.3905L19.0762 16.3425L19.0576 16.2948L19.0468 16.2444L19.0375 16.1925L19.0315 16.1421L19.0264 16.0917L19.0291 16.0419H18.9961Z" fill="white"/>
<path d="M19.8139 15.1677L19.7347 15.1812L19.657 15.2016L19.582 15.2265L19.5091 15.2583L19.4383 15.2946L19.3693 15.3405L19.3084 15.3885L19.2496 15.4431L19.1941 15.5001L19.147 15.5637L19.1014 15.6321L19.0678 15.7071L19.0375 15.7848L19.0174 15.8667L19.0036 15.9528L18.9961 16.0419H19.0291L19.0315 15.9528L19.0441 15.8712L19.0651 15.7938L19.0939 15.7167L19.1293 15.6456L19.1695 15.5817L19.2184 15.5181L19.2682 15.4617L19.3264 15.4113L19.3885 15.363L19.4518 15.3225L19.5226 15.2859L19.5907 15.2544L19.6666 15.2292L19.7389 15.2085L19.8139 15.195V15.1677Z" fill="white"/>
<path d="M20.2824 15.1198H20.2572L20.226 15.1246L20.1939 15.127L20.1576 15.1288L20.1186 15.1333L20.0805 15.136L20.0391 15.1402L20.0004 15.1447L19.9641 15.1498L19.9305 15.1543L19.8978 15.1561L19.8684 15.1612L19.8453 15.163L19.8276 15.1651L19.8186 15.1678H19.8135V15.1951H19.8186L19.8318 15.1924L19.8453 15.1906L19.8684 15.1882L19.8978 15.1834L19.9305 15.1813L19.9641 15.1765L20.0004 15.172L20.0391 15.1678L20.0805 15.163L20.1186 15.1612L20.1576 15.1561L20.1939 15.1543L20.226 15.1516H20.2572H20.2824V15.1198Z" fill="white"/>
<path d="M20.5903 15.1447L20.6047 15.1333H20.5945L20.5744 15.1312L20.5375 15.1288L20.4943 15.1246H20.4439H20.3926L20.3371 15.1198H20.2822V15.1516H20.3371H20.3926L20.4439 15.1561H20.4943H20.5375L20.5744 15.1582L20.5945 15.1612H20.6047L20.6176 15.1498L20.6047 15.1612L20.6155 15.163L20.6176 15.1498L20.5903 15.1447Z" fill="white"/>
<path d="M20.6136 14.9992H20.6112L20.6085 15.0421L20.6019 15.0877L20.595 15.1288L20.5908 15.1447L20.6181 15.1498L20.6223 15.1333L20.6298 15.0919L20.6364 15.0421L20.6439 14.9992H20.6406H20.6136Z" fill="white"/>
<path d="M20.3428 14.7738V14.7756L20.3947 14.778L20.443 14.7918L20.4883 14.8125L20.527 14.8395L20.5582 14.8716L20.5861 14.9103L20.6053 14.9511L20.6137 14.9991H20.6407L20.6314 14.9469L20.6137 14.8965L20.5813 14.8533L20.5447 14.8164L20.5018 14.7852L20.4514 14.7642L20.3992 14.751L20.3428 14.7441V14.7462V14.7738Z" fill="white"/>
<path d="M19.3652 14.883L19.388 14.8965L19.4108 14.8851L19.4402 14.8692L19.4792 14.8554L19.5296 14.8422L19.5836 14.8308L19.6433 14.8191L19.709 14.8077L19.7747 14.799L19.8452 14.7891L19.9184 14.7825L19.9913 14.7756L20.0669 14.7714H20.1392H20.21H20.2781L20.3423 14.7738V14.7462L20.2781 14.7441L20.21 14.7393H20.1392L20.0669 14.7441L19.9913 14.7486L19.9184 14.7555L19.8452 14.7624L19.7747 14.7714L19.7048 14.7801L19.6382 14.7918L19.5794 14.8032L19.5245 14.8146L19.4747 14.8281L19.4309 14.8422L19.3967 14.8578L19.3688 14.874L19.3931 14.8875L19.3652 14.883Z" fill="white"/>
<path d="M19.5338 14.3226L19.5245 14.3343L19.3652 14.883L19.3931 14.8875L19.5515 14.3382L19.5431 14.3499L19.5338 14.3226L19.5269 14.325L19.5245 14.3343L19.5338 14.3226Z" fill="white"/>
<path d="M20.5473 14.2183L20.4696 14.2134L20.3931 14.2113H20.319H20.2485H20.1783L20.1126 14.2159L20.046 14.2183L19.9821 14.2231L19.9206 14.2267L19.8594 14.2363L19.8033 14.2453L19.7454 14.257L19.6908 14.2684L19.6362 14.2843L19.584 14.3023L19.5342 14.3227L19.5435 14.35L19.5939 14.3296L19.6452 14.3119L19.695 14.2954L19.7505 14.2843L19.8069 14.2726L19.8642 14.2636L19.9206 14.2543L19.9821 14.2501L20.046 14.2453L20.1126 14.2432H20.1783H20.2485H20.319H20.3931L20.4696 14.2453H20.5473V14.2183Z" fill="white"/>
<path d="M21.3281 14.9898L21.3398 14.8965V14.8101L21.3239 14.73L21.2987 14.655L21.2624 14.5848L21.2171 14.5209L21.1616 14.4639L21.1052 14.4138L21.0392 14.3703L20.9702 14.3295L20.8979 14.2977L20.8271 14.2701L20.7521 14.25L20.681 14.2341L20.6108 14.223L20.5469 14.2182V14.2452L20.6108 14.25L20.6765 14.2614L20.7473 14.277L20.8184 14.2977L20.8886 14.325L20.9561 14.3571L21.0251 14.3934L21.0866 14.4366L21.1433 14.4867L21.1934 14.5389L21.239 14.598L21.2711 14.6646L21.2963 14.7351L21.3122 14.8101V14.8965L21.3005 14.9856L21.3281 14.9898Z" fill="white"/>
<path d="M21.0891 16.1926L21.3282 14.9899L21.3006 14.9857L21.0615 16.1878L21.0891 16.1926Z" fill="white"/>
<path d="M20.524 15.5953L20.5189 15.5818L20.5105 15.5707L20.4943 15.5638L20.4712 15.5572L20.4466 15.5545L20.4178 15.5521H20.3824L20.3488 15.5545L20.3119 15.5593L20.2762 15.5638L20.2399 15.5686L20.2057 15.5731L20.1712 15.5803L20.1418 15.5845L20.1121 15.5914L20.0893 15.5953L20.0734 15.598L20.0557 15.6049L20.032 15.6118L20.0068 15.6205L19.9774 15.6343L19.9498 15.6484L19.9183 15.664L19.8889 15.6844L19.8589 15.7051L19.8301 15.7303L19.8049 15.7549L19.7797 15.7849L19.7593 15.8164L19.7434 15.8506L19.7299 15.8875L19.7224 15.9259L19.7197 16.0033L19.7308 16.0648L19.75 16.1107L19.777 16.1443L19.8109 16.1674L19.8502 16.1809L19.8889 16.1878L19.9276 16.1899L19.9951 16.1878L20.0593 16.1809L20.1184 16.1695L20.1712 16.1539L20.221 16.1356L20.2645 16.1149L20.3059 16.0918L20.3422 16.0648L20.374 16.0396L20.401 16.0105L20.4262 15.9826L20.4466 15.9529L20.4625 15.9259L20.4736 15.8986L20.4826 15.8713L20.4901 15.8461L20.4988 15.7822L20.5105 15.7168L20.5189 15.6526L20.524 15.5953Z" fill="#FBB231"/>
<path d="M25.2148 16.384L25.219 16.3315L25.2376 16.2697L25.2694 16.2151L25.3084 16.1674L25.3555 16.1287L25.4104 16.1011L25.4692 16.0828L25.5334 16.0762L25.5979 16.0828L25.6561 16.1011L25.7116 16.1287L25.759 16.1674L25.7977 16.2151L25.8298 16.2697L25.8481 16.3315L25.8532 16.384H25.7842L25.7815 16.3426L25.768 16.2928L25.7452 16.2472L25.7161 16.2082L25.6798 16.1761L25.6366 16.1539L25.5862 16.1377L25.5334 16.1332L25.4809 16.1377L25.4311 16.1539L25.3876 16.1761L25.3513 16.2082L25.3219 16.2472L25.2991 16.2928L25.2856 16.3426L25.2805 16.384H25.2148Z" fill="white"/>
<path d="M25.4199 16.384V16.2472H25.5453L25.5732 16.2496L25.5984 16.2541L25.6164 16.2607L25.632 16.2697L25.6434 16.2832L25.6524 16.2973L25.6566 16.3129L25.6593 16.3291L25.6566 16.3495L25.6524 16.3654L25.6455 16.3795L25.6416 16.384H25.5453L25.5549 16.3813L25.5699 16.3795L25.5843 16.375L25.5957 16.3699L25.6053 16.3633L25.6095 16.3561L25.6143 16.3453V16.3291L25.6113 16.318L25.6068 16.3084L25.5996 16.3039L25.5936 16.2997L25.5816 16.2973L25.5699 16.2949H25.5591H25.5453H25.4772V16.384H25.4199Z" fill="white"/>
<path d="M25.2157 16.3839L25.2139 16.3974L25.2199 16.4631L25.2385 16.5249L25.2703 16.5798L25.3093 16.6251L25.3564 16.6632L25.4113 16.6935L25.4701 16.7118L25.5343 16.7187L25.5988 16.7118L25.657 16.6935L25.7125 16.6632L25.7599 16.6251L25.7986 16.5798L25.8307 16.5249L25.849 16.4631L25.8565 16.3974L25.8541 16.3839H25.7851L25.7875 16.3974L25.7824 16.4517L25.7689 16.5021L25.7461 16.5456L25.717 16.5837L25.6807 16.6158L25.6375 16.6407L25.5871 16.6569L25.5343 16.6614L25.4818 16.6569L25.432 16.6407L25.3885 16.6158L25.3522 16.5837L25.3228 16.5456L25.3 16.5021L25.2865 16.4517L25.2814 16.3974V16.3839H25.2157Z" fill="white"/>
<path d="M25.4199 16.3839V16.5228H25.4772V16.4085H25.5339L25.6026 16.5228H25.6476L25.5801 16.4085H25.5957L25.6113 16.404L25.6254 16.3995L25.6371 16.3905L25.6416 16.3839H25.5453L25.5339 16.386H25.4772V16.3839H25.4199Z" fill="white"/>
<path d="M25.2139 16.3975L25.2202 16.3312L25.2388 16.2697L25.2706 16.2148L25.3096 16.1671L25.3567 16.1284L25.4116 16.1008L25.4704 16.0819L25.5346 16.0756L25.5991 16.0819L25.6573 16.1008L25.7128 16.1284L25.7602 16.1671L25.7989 16.2148L25.8301 16.2697L25.849 16.3312L25.8556 16.3975L25.849 16.4635L25.8301 16.525L25.7989 16.5799L25.7602 16.6252L25.7128 16.6636L25.6573 16.6942L25.5991 16.7125L25.5346 16.7188L25.4701 16.7122L25.4113 16.6939L25.3564 16.6633L25.3093 16.6249L25.2703 16.5796L25.2385 16.5247L25.2199 16.4632L25.2139 16.3975ZM25.4776 16.5229H25.4212V16.2472H25.5466L25.5742 16.2496L25.5994 16.2541L25.6171 16.2607L25.6336 16.2697L25.6447 16.2832L25.6534 16.2973L25.6582 16.3132L25.6609 16.3297L25.6582 16.3495L25.6534 16.3657L25.6471 16.3795L25.6384 16.3912L25.6267 16.3996L25.6126 16.4047L25.5973 16.4095H25.5805L25.6489 16.5235H25.6039L25.5352 16.4095H25.4785V16.5232L25.4776 16.5229ZM25.5343 16.3861L25.5544 16.381L25.5703 16.3792L25.5847 16.3744L25.5961 16.3696L25.6048 16.363L25.6099 16.3558L25.6147 16.3453V16.3291L25.6117 16.318L25.6072 16.3087L25.6 16.3039L25.5937 16.2994L25.5826 16.297L25.5709 16.2949H25.5598H25.5463H25.4776V16.3858L25.5343 16.3861ZM25.5343 16.6615L25.5871 16.657L25.6375 16.6405L25.6807 16.6156L25.717 16.5838L25.747 16.5457L25.7698 16.5019L25.7833 16.4515L25.7881 16.3969L25.7833 16.342L25.7698 16.2916L25.747 16.2466L25.717 16.2073L25.6807 16.1758L25.6375 16.1536L25.5871 16.1374L25.5343 16.1323L25.4818 16.1374L25.432 16.1536L25.3882 16.1758L25.3519 16.2073L25.3225 16.2466L25.2997 16.2916L25.2862 16.342L25.2811 16.3969L25.2862 16.4515L25.2997 16.5019L25.3225 16.5457L25.3519 16.5838L25.3882 16.6156L25.432 16.6405L25.4818 16.657L25.5343 16.6615Z" stroke="white" stroke-width="0.216" stroke-miterlimit="2.6131"/>
<path d="M21.2461 16.6956H21.8887L22.1188 15.3999L22.1278 15.3501L22.1416 15.2997L22.1557 15.2496L22.1734 15.1995L22.1959 15.1497L22.2232 15.1014L22.2532 15.0561L22.2901 15.0126L22.3309 14.9742L22.3762 14.9376L22.4284 14.9031L22.4875 14.8758L22.5541 14.8533L22.6264 14.8353L22.7065 14.8215L22.7947 14.8164H22.8274H22.8445H22.852L22.9549 14.2317L22.8907 14.2362L22.8295 14.2431L22.7722 14.2542L22.7182 14.2701L22.6678 14.2881L22.6195 14.3118L22.5742 14.3364L22.5313 14.3634L22.4899 14.3958L22.4512 14.4273L22.4149 14.4639L22.3786 14.5002L22.3438 14.5389L22.3105 14.5821L22.276 14.6232L22.2439 14.6688L22.3123 14.2569H21.6724L21.2461 16.6956Z" fill="white"/>
<path d="M21.2461 16.6956H21.8887L22.1188 15.3999L22.1278 15.3501L22.1416 15.2997L22.1557 15.2496L22.1734 15.1995L22.1959 15.1497L22.2232 15.1014L22.2532 15.0561L22.2901 15.0126L22.3309 14.9742L22.3762 14.9376L22.4284 14.9031L22.4875 14.8758L22.5541 14.8533L22.6264 14.8353L22.7065 14.8215L22.7947 14.8164H22.8274H22.8445H22.852L22.9549 14.2317L22.8907 14.2362L22.8295 14.2431L22.7722 14.2542L22.7182 14.2701L22.6678 14.2881L22.6195 14.3118L22.5742 14.3364L22.5313 14.3634L22.4899 14.3958L22.4512 14.4273L22.4149 14.4639L22.3786 14.5002L22.3438 14.5389L22.3105 14.5821L22.276 14.6232L22.2439 14.6688L22.3123 14.2569H21.6724L21.2461 16.6956Z" stroke="white" stroke-width="0.216" stroke-miterlimit="2.6131"/>
<path d="M15.2168 16.6956H15.8582H15.8693L16.0883 15.3999L16.0976 15.3501L16.1084 15.3018L16.1201 15.2544L16.1363 15.2085L16.1549 15.1629L16.1774 15.1197L16.2047 15.0786L16.2365 15.0399L16.2728 15.0054L16.3139 14.9718L16.3637 14.9442L16.4186 14.9193L16.4822 14.8986L16.553 14.8809L16.6307 14.8692L16.7189 14.8626H16.7258L16.7351 14.8647L16.7459 14.8668H16.7576L16.7693 14.8692L16.7789 14.8716L16.7849 14.874H16.7873L16.7903 14.8647L16.7966 14.8374L16.8059 14.7966L16.8176 14.7462L16.8326 14.6871L16.8488 14.6232L16.8695 14.5596L16.8899 14.4954L16.9082 14.4522L16.9313 14.409L16.9541 14.3658L16.9766 14.3271L16.997 14.2932L17.0129 14.2659L17.024 14.25L17.0291 14.2431H17.0264L17.018 14.2407L17.0063 14.2383L16.9901 14.2362H16.9742L16.9562 14.2341L16.9403 14.2317H16.9244L16.8539 14.2362L16.7903 14.2431L16.7309 14.2542L16.676 14.2683L16.6232 14.2863L16.5758 14.3094L16.532 14.3316L16.4918 14.3589L16.4528 14.3886L16.4168 14.4231L16.382 14.4573L16.3478 14.4954L16.3139 14.5347L16.2812 14.5779L16.2476 14.6232L16.2137 14.6688L16.2953 14.2569H15.6428L15.2168 16.6956Z" fill="white"/>
<path d="M15.2168 16.6956H15.8582H15.8693L16.0883 15.3999L16.0976 15.3501L16.1084 15.3018L16.1201 15.2544L16.1363 15.2085L16.1549 15.1629L16.1774 15.1197L16.2047 15.0786L16.2365 15.0399L16.2728 15.0054L16.3139 14.9718L16.3637 14.9442L16.4186 14.9193L16.4822 14.8986L16.553 14.8809L16.6307 14.8692L16.7189 14.8626H16.7258L16.7351 14.8647L16.7459 14.8668H16.7576L16.7693 14.8692L16.7789 14.8716L16.7849 14.874H16.7873L16.7903 14.8647L16.7966 14.8374L16.8059 14.7966L16.8176 14.7462L16.8326 14.6871L16.8488 14.6232L16.8695 14.5596L16.8899 14.4954L16.9082 14.4522L16.9313 14.409L16.9541 14.3658L16.9766 14.3271L16.997 14.2932L17.0129 14.2659L17.024 14.25L17.0291 14.2431H17.0264L17.018 14.2407L17.0063 14.2383L16.9901 14.2362H16.9742L16.9562 14.2341L16.9403 14.2317H16.9244L16.8539 14.2362L16.7903 14.2431L16.7309 14.2542L16.676 14.2683L16.6232 14.2863L16.5758 14.3094L16.532 14.3316L16.4918 14.3589L16.4528 14.3886L16.4168 14.4231L16.382 14.4573L16.3478 14.4954L16.3139 14.5347L16.2812 14.5779L16.2476 14.6232L16.2137 14.6688L16.2953 14.2569H15.6428L15.2168 16.6956Z" stroke="white" stroke-width="0.216" stroke-miterlimit="2.6131"/>
<path d="M25.2197 19.0912V19.0822L25.2383 19.0231L25.2701 18.9703L25.3091 18.925L25.3562 18.8887L25.4111 18.8614L25.4699 18.8455L25.5341 18.8383L25.5986 18.8455L25.6568 18.8614L25.7123 18.8887L25.7597 18.925L25.7984 18.9703L25.8305 19.0231L25.8488 19.0822V19.0912H25.7822L25.7687 19.0438L25.7459 19.0003L25.7168 18.9616L25.6805 18.9301L25.6373 18.9049L25.5869 18.8887L25.5341 18.8842L25.4816 18.8887L25.4318 18.9049L25.3883 18.9301L25.352 18.9616L25.3226 19.0003L25.2998 19.0438L25.2863 19.0912H25.2197Z" fill="#FBB231"/>
<path d="M25.4199 19.0911V19.0119H25.5453H25.5732L25.5984 19.0161L25.6164 19.02L25.632 19.0296L25.6434 19.0413L25.6524 19.0548L25.6566 19.0704L25.6593 19.0911H25.6143V19.08L25.6113 19.0683L25.6068 19.0593L25.5996 19.0548L25.5936 19.05L25.5816 19.0479L25.5699 19.0458H25.5591H25.5453H25.4772V19.0911H25.4199Z" fill="#FBB231"/>
<path d="M25.2139 19.1416L25.2199 19.0912H25.2865V19.0936L25.2814 19.1416H25.2139Z" fill="#FBB231"/>
<path d="M25.4199 19.1416V19.0912H25.4772V19.1368H25.5339L25.5549 19.1326L25.5699 19.1305L25.5843 19.1251L25.5957 19.1209L25.6053 19.114L25.6095 19.1068L25.6143 19.0963V19.0912H25.6593L25.6566 19.1068L25.6524 19.1209L25.6455 19.1326L25.6371 19.1416H25.4199Z" fill="#FBB231"/>
<path d="M25.7873 19.1416L25.7822 19.0936V19.0912H25.8488L25.8563 19.1416H25.7873Z" fill="#FBB231"/>
<path d="M25.2139 19.1415V19.1481L25.2199 19.2138L25.2385 19.2753L25.2703 19.3302L25.3093 19.3779L25.3564 19.4169L25.4113 19.4439L25.4701 19.4625L25.5343 19.4688L25.5988 19.4625L25.657 19.4439L25.7125 19.4169L25.7599 19.3779L25.7986 19.3302L25.8307 19.2753L25.849 19.2138L25.8565 19.1481V19.1415H25.7875V19.1481L25.7824 19.2027L25.7689 19.2528L25.7461 19.296L25.717 19.3344L25.6807 19.3671L25.6375 19.3917L25.5871 19.4079L25.5343 19.4124L25.4818 19.4079L25.432 19.3917L25.3885 19.3671L25.3522 19.3344L25.3228 19.296L25.3 19.2528L25.2865 19.2027L25.2814 19.1481V19.1415H25.2139Z" fill="#FBB231"/>
<path d="M25.4199 19.1415V19.2735H25.4772V19.1595H25.5339L25.6026 19.2735H25.6476L25.5801 19.1595H25.5957L25.6113 19.155L25.6254 19.1502L25.6371 19.1415H25.4199Z" fill="#FBB231"/>
<path d="M15.2868 14.9829L15.2682 14.8467L15.237 14.7261L15.1917 14.6214L15.135 14.5299L15.0663 14.4522L14.9913 14.3886L14.9097 14.334L14.8212 14.2929L14.7297 14.2584L14.6358 14.2359L14.5425 14.22L14.4486 14.211L14.3601 14.2083L14.1756 14.2179L14.0115 14.2449L13.8633 14.286L13.7316 14.343L13.6173 14.4114L13.5171 14.4888L13.4286 14.5752L13.3554 14.6667L13.2921 14.7621L13.2393 14.8623L13.1988 14.9604L13.1643 15.0576L13.1391 15.1536L13.1208 15.2421L13.1073 15.3264L13.098 15.3993L13.0869 15.5859L13.0932 15.7548L13.1184 15.9072L13.1571 16.0419L13.2123 16.1622L13.278 16.2675L13.3554 16.3608L13.4445 16.4382L13.5399 16.5045L13.6425 16.5612L13.7496 16.605L13.8609 16.6383L13.9752 16.6659L14.0889 16.6824L14.2026 16.6935L14.3145 16.6959H14.3895L14.4597 16.6935H14.5212L14.5803 16.6908L14.6331 16.6863L14.6805 16.6815L14.7261 16.6767L14.7672 16.6704L14.8059 16.6632L14.8422 16.6548L14.8791 16.6431L14.913 16.632L14.9469 16.6179L14.9832 16.605L15.0201 16.5861L15.0564 16.5678L15.1479 16.0077L15.081 16.0464L15.0177 16.0821L14.9514 16.1103L14.8875 16.1352L14.826 16.1553L14.7627 16.1688L14.7006 16.1805L14.6391 16.1892L14.5782 16.194L14.5185 16.1964H14.457L14.3985 16.194L14.3388 16.1892L14.2797 16.1829L14.2233 16.176L14.1636 16.1673L14.118 16.158L14.073 16.1421L14.0268 16.1223L13.9863 16.0965L13.9452 16.0695L13.9089 16.0359L13.875 16.0017L13.8429 15.9627L13.8153 15.924L13.7907 15.8808L13.7724 15.8391L13.7559 15.7956L13.7466 15.7518L13.743 15.708L13.7448 15.6699L13.7502 15.6399H15.2274L15.2391 15.501L15.273 15.3093L15.2889 15.1362L15.2868 14.9829ZM14.6697 15.1923H13.8378L13.8384 15.1905L13.8372 15.1902L13.8432 15.1584L13.8525 15.111L13.866 15.0657L13.8819 15.0204L13.9023 14.9793L13.9233 14.9403L13.9479 14.9037L13.9755 14.8698L14.0055 14.838L14.0343 14.8107L14.0688 14.7858L14.1027 14.7651L14.142 14.7468L14.1807 14.7336L14.2194 14.7243L14.2599 14.7174L14.3037 14.715L14.3442 14.7198L14.3829 14.7267L14.4198 14.7357L14.4555 14.7492L14.49 14.7675L14.5239 14.7879L14.5539 14.8107L14.5809 14.838L14.6037 14.8698L14.6265 14.9037L14.6424 14.9427L14.6589 14.9862L14.6676 15.0315L14.6724 15.0816L14.6748 15.1365L14.6697 15.1923Z" fill="white"/>
<path d="M70 28.5C70 29.325 69.325 30 68.5 30H41.5C40.675 30 40 29.325 40 28.5V1.5C40 0.675 40.675 0 41.5 0H68.5C69.325 0 70 0.675 70 1.5V28.5Z" fill="#0057A0"/>
<path d="M53.5012 18.5325H51.6631L52.8121 11.4723H54.6502L53.5012 18.5325Z" fill="white"/>
<path d="M50.117 11.4723L48.3644 16.3284L48.1571 15.2832L47.5388 12.108C47.5388 12.108 47.4638 11.4723 46.667 11.4723H43.7696L43.7363 11.5917C43.7363 11.5917 44.6222 11.7756 45.6587 12.3987L47.2553 18.5319H49.1708L52.0958 11.472L50.117 11.4723Z" fill="white"/>
<path d="M64.5752 18.5325H66.2627L64.7915 11.4723H63.3137C62.6312 11.4723 62.4647 11.9982 62.4647 11.9982L59.7236 18.5325H61.6397L62.0222 17.4837H64.3595L64.5752 18.5325ZM62.5526 16.0353L63.5183 13.3926L64.0622 16.0353H62.5526Z" fill="white"/>
<path d="M59.8673 13.17L60.1292 11.6535C60.1292 11.6535 59.3201 11.346 58.4762 11.346C57.5639 11.346 55.3976 11.7447 55.3976 13.6833C55.3976 15.5076 57.9407 15.5304 57.9407 16.488C57.9407 17.4456 55.6595 17.2746 54.9074 16.6704L54.6338 18.2547C54.6338 18.2547 55.4543 18.6537 56.7086 18.6537C57.9632 18.6537 59.8553 18.0045 59.8553 16.2366C59.8553 14.4012 57.29 14.2299 57.29 13.4316C57.2903 12.6339 59.0807 12.7365 59.8673 13.17Z" fill="white"/>
<path d="M48.1568 15.2829L47.5388 12.108C47.5388 12.108 47.4638 11.4723 46.667 11.4723H43.7696L43.7363 11.5917C43.7363 11.5917 45.1286 11.8803 46.4639 12.9612C47.7404 13.995 48.1568 15.2829 48.1568 15.2829Z" fill="#F9A533"/>
<path d="M110 28.5C110 29.325 109.325 30 108.5 30H81.5C80.675 30 80 29.325 80 28.5V1.5C80 0.675 80.675 0 81.5 0H108.5C109.325 0 110 0.675 110 1.5V28.5Z" fill="#EBAB1F"/>
<path d="M88.9956 14.4625V8.23145L88.2471 8.44025V14.6719L88.9956 14.4625Z" fill="#231F20"/>
<path d="M88.0967 15.585C88.0967 15.7575 88.2845 15.9027 88.4711 15.8781L89.1941 15.6903V14.7546L88.0976 15.0618L88.0967 15.585Z" fill="#231F20"/>
<path d="M88.0967 16.7319C88.0967 16.9041 88.2845 17.0496 88.4711 17.025L89.1941 16.8363V15.9012L88.0976 16.2081L88.0967 16.7319Z" fill="#231F20"/>
<path d="M88.0967 17.8789C88.0967 18.0511 88.2845 18.1966 88.4711 18.1723L89.1941 17.9815V17.0482L88.0976 17.3557L88.0967 17.8789Z" fill="#231F20"/>
<path d="M91.5553 13.5808C91.5055 13.6921 91.4041 13.7884 91.2871 13.8202L90.8884 13.9342L90.8902 15.8728C90.8902 15.928 90.8449 15.9742 90.7885 15.9742C90.733 15.9742 90.6871 15.9277 90.6871 15.8728L90.6886 13.0684C90.6886 12.7378 90.4201 12.469 90.091 12.469H89.9911C89.6608 12.469 89.3926 12.7378 89.3926 13.0684V18.9001C89.3926 19.3492 89.7916 19.7485 90.091 19.972L90.3895 20.2213H92.8315V15.5344C92.8315 15.5344 92.8315 15.3361 92.7832 15.2113C92.7334 15.0877 92.6329 14.9875 92.6329 14.9875L91.5553 13.5808Z" fill="#231F20"/>
<path d="M90.1916 9.89044C90.1916 9.89044 90.5099 9.54904 90.827 9.47764C91.5491 9.31774 91.5872 10.0266 91.5872 10.0266V11.8125L90.8894 12.0093V10.401C90.8894 10.401 90.9248 10.0539 90.6782 10.0908C90.2537 10.1526 90.1916 10.5144 90.1916 10.5144V12.2124L89.4932 12.4071V9.91564L90.1916 9.71884V9.89044Z" fill="#231F20"/>
<path d="M91.7363 9.76477V9.29227L92.036 9.20587V8.60737L92.7341 8.41057V9.01777L93.2573 8.86567V9.34027L92.7341 9.49057V10.7536C92.7341 10.7536 92.7374 10.8691 92.7791 10.9057C92.8649 10.9765 93.0068 10.9117 93.0068 10.9117L93.2507 10.8175V11.2675C93.2507 11.2675 92.8574 11.4859 92.6465 11.5222C92.5061 11.5474 92.3594 11.5348 92.1977 11.4352C92.036 11.3353 92.036 11.0992 92.036 11.0992V9.67717L91.7363 9.76477Z" fill="#231F20"/>
<path d="M95.4865 9.75239V10.0341C95.4865 10.4625 95.2753 10.7874 94.8899 10.8873L94.3408 11.0556C93.9296 11.1471 93.4688 10.9368 93.4688 10.5006V9.32879C93.4688 8.99879 93.7373 8.65559 94.0663 8.56199L94.8899 8.33189C95.219 8.24069 95.4865 8.58389 95.4865 8.91269V9.51509L94.1395 9.90179V10.2966C94.1395 10.3785 94.2295 10.5372 94.4182 10.4865L94.6715 10.4175C94.7957 10.3785 94.8163 10.2354 94.8163 10.1553V9.93899L95.4865 9.75239ZM94.8163 9.28019V9.09719C94.8163 8.97059 94.6837 8.89889 94.5907 8.92769L94.3621 8.99249C94.2223 9.03419 94.1395 9.19199 94.1395 9.27269V9.46769L94.8163 9.28019Z" fill="#231F20"/>
<path d="M96.4722 8.88092V10.3548L95.7744 10.5375V8.10721L96.4314 7.92242L96.4665 8.02711C96.6429 7.84381 96.8796 7.72081 97.1445 7.68571V8.31901C97.107 8.31241 97.0848 8.30702 97.0455 8.30702C96.7299 8.30731 96.4722 8.56352 96.4722 8.88092Z" fill="#231F20"/>
<path d="M101.521 7.9926C101.521 8.6559 101.307 8.9181 100.921 9.0177L100.373 9.1854C99.9615 9.2799 99.501 9.2178 99.501 8.6691V7.6356C99.501 7.1988 99.6258 6.912 100.099 6.7434L100.721 6.5715C101.277 6.4662 101.521 6.7614 101.457 7.305L100.849 7.4727V7.3164C100.849 7.2357 100.829 7.0959 100.629 7.131L100.375 7.2042C100.207 7.2642 100.171 7.4262 100.171 7.5057V8.4264C100.171 8.6076 100.321 8.7093 100.575 8.661L100.666 8.634C100.9 8.5473 100.874 8.2494 100.874 8.1687L101.521 7.9926Z" fill="#231F20"/>
<path d="M97.7429 9.96546C97.5437 9.94446 97.1699 9.87726 97.1699 9.28026C97.1699 8.68236 97.6913 8.53086 98.1161 8.36916C98.5391 8.20746 98.5028 8.07096 98.5028 7.93326C98.5028 7.85556 98.435 7.73946 98.1905 7.82046C97.8824 7.92396 97.8935 8.12976 97.8935 8.12976V8.26176L97.2689 8.43576V8.14926C97.2689 8.14926 97.2443 7.57266 97.979 7.38426C98.6012 7.22766 98.6282 7.20936 98.7887 7.24806C99.2504 7.36086 99.1877 7.83816 99.1877 7.83816V9.53826L98.5157 9.73506V9.65376C98.5166 9.65376 98.1047 10.0024 97.7429 9.96546ZM98.5166 8.70576C98.5166 8.70576 97.7999 8.88816 97.9109 9.24516C97.9733 9.44436 98.2367 9.36096 98.3504 9.27696C98.519 9.15066 98.5166 9.00246 98.5166 9.00246V8.70576Z" fill="#231F20"/>
<path d="M101.3 5.86415V5.37875H101.515C101.558 5.37875 101.591 5.38205 101.614 5.39075C101.636 5.39915 101.654 5.41445 101.667 5.43755C101.682 5.45855 101.687 5.48315 101.687 5.51075C101.687 5.54555 101.677 5.57405 101.654 5.59745C101.632 5.62085 101.598 5.63555 101.551 5.64215C101.567 5.65025 101.581 5.65715 101.59 5.66705C101.608 5.68355 101.627 5.70545 101.645 5.73035L101.727 5.86415H101.647L101.583 5.76185C101.563 5.73185 101.549 5.70935 101.536 5.69525C101.524 5.67965 101.514 5.66885 101.503 5.66225C101.494 5.65505 101.484 5.65235 101.474 5.64995C101.467 5.64845 101.455 5.64845 101.439 5.64845H101.364V5.86415H101.3ZM101.364 5.59235H101.502C101.531 5.59235 101.554 5.58875 101.571 5.58305C101.588 5.57675 101.601 5.56745 101.608 5.55365C101.617 5.54075 101.621 5.52515 101.621 5.51045C101.621 5.48585 101.613 5.46875 101.597 5.45315C101.58 5.43905 101.554 5.43005 101.518 5.43005H101.364L101.364 5.59235Z" fill="#231F20"/>
<path d="M101.483 5.22126C101.598 5.22126 101.702 5.26866 101.778 5.34546C101.855 5.41956 101.902 5.52546 101.902 5.64066C101.902 5.75556 101.855 5.86056 101.778 5.93736C101.702 6.01266 101.597 6.06096 101.483 6.06096C101.367 6.06096 101.261 6.01266 101.186 5.93736C101.111 5.86086 101.063 5.75556 101.063 5.64066C101.063 5.52546 101.111 5.41956 101.186 5.34546C101.261 5.26896 101.368 5.22126 101.483 5.22126ZM101.744 5.38086C101.677 5.31426 101.585 5.27046 101.483 5.27046C101.381 5.27046 101.289 5.31426 101.222 5.38086C101.153 5.44746 101.114 5.53896 101.114 5.64066C101.114 5.74326 101.154 5.83566 101.222 5.90196C101.289 5.96856 101.381 6.01026 101.483 6.01026C101.585 6.01026 101.677 5.96826 101.744 5.90196C101.811 5.83566 101.852 5.74326 101.852 5.64066C101.853 5.53896 101.811 5.44716 101.744 5.38086Z" fill="#231F20"/>
<path d="M80 21.5775V28.5C80 29.325 80.675 30 81.5 30H108.5C109.325 30 110 29.325 110 28.5V21.5775H80Z" fill="#636466"/>
<path d="M85.3001 24.3483H86.786V24.8376H85.9046V25.3521H86.732V25.8417H85.9046V26.4279H86.8256V26.9175H85.2998L85.3001 24.3483Z" fill="white"/>
<path d="M87.1465 25.6323H88.2328V26.1219H87.1465V25.6323Z" fill="white"/>
<path d="M89.0299 24.8376H88.4902V24.3483H90.1735V24.8376H89.6338V26.9175H89.0296L89.0299 24.8376Z" fill="white"/>
<path d="M90.4951 24.3483H91.5094C92.0239 24.3483 92.2003 24.6651 92.2003 25.0176C92.2003 25.3914 92.0491 25.575 91.7686 25.6434V25.6506C92.1535 25.7049 92.1751 25.9455 92.1829 26.2914C92.1934 26.7984 92.2117 26.8488 92.2978 26.8851V26.9172H91.6468C91.6 26.8311 91.5817 26.6868 91.5817 26.3958C91.5817 25.9497 91.5208 25.8561 91.3297 25.8561H91.0993V26.9172H90.4951V24.3483ZM91.0993 25.4313H91.2862C91.531 25.4313 91.5961 25.2477 91.5961 25.0962C91.5961 24.9024 91.5241 24.7728 91.2826 24.7728H91.0993V25.4313Z" fill="white"/>
<path d="M93.1484 24.3483H93.9038L94.5443 26.9172H93.9185L93.8246 26.4276H93.2093L93.119 26.9172H92.4932L93.1484 24.3483ZM93.5153 24.8163H93.5084L93.2957 25.9602H93.7352L93.5153 24.8163Z" fill="white"/>
<path d="M94.8509 24.3483H95.5451L96.0419 26.0178H96.0485V24.3483H96.6098V26.9172H95.9261L95.3969 25.1469H95.3903V26.9172H94.8506L94.8509 24.3483Z" fill="white"/>
<path d="M97.5975 26.1327V26.2227C97.5975 26.4168 97.6515 26.5647 97.86 26.5647C98.0727 26.5647 98.1336 26.4066 98.1336 26.2587C98.1336 25.7043 97.0287 26.0142 97.0287 25.0533C97.0287 24.6432 97.2477 24.2973 97.8711 24.2973C98.4753 24.2973 98.691 24.6033 98.691 24.9987V25.0599H98.1084C98.1084 24.9375 98.0943 24.8475 98.058 24.7902C98.0223 24.7293 97.9641 24.7002 97.8747 24.7002C97.7235 24.7002 97.6338 24.7902 97.6338 24.9774C97.6338 25.5135 98.7384 25.2438 98.7384 26.1504C98.7384 26.733 98.4144 26.9676 97.86 26.9676C97.4211 26.9676 97.0146 26.8344 97.0146 26.2983V26.1327H97.5975Z" fill="white"/>
<path d="M99.1429 24.3483H100.629V24.8376H99.7468V25.3521H100.575V25.8417H99.7468V26.9175H99.1426V24.3483H99.1429Z" fill="white"/>
<path d="M100.985 24.3483H102.471V24.8376H101.589V25.3521H102.417V25.8417H101.589V26.4279H102.51V26.9175H100.984L100.985 24.3483Z" fill="white"/>
<path d="M102.896 24.3483H103.911C104.425 24.3483 104.602 24.6651 104.602 25.0176C104.602 25.3914 104.45 25.575 104.17 25.6434V25.6506C104.555 25.7049 104.576 25.9455 104.585 26.2914C104.595 26.7984 104.613 26.8488 104.699 26.8851V26.9172H104.048C104.002 26.8311 103.983 26.6868 103.983 26.3958C103.983 25.9497 103.922 25.8561 103.731 25.8561H103.501V26.9172H102.896V24.3483ZM103.501 25.4313H103.688C103.932 25.4313 103.997 25.2477 103.997 25.0962C103.997 24.9024 103.925 24.7728 103.684 24.7728H103.501V25.4313Z" fill="white"/>
<path d="M150 28.5C150 29.325 149.325 30 148.5 30H121.5C120.675 30 120 29.325 120 28.5V1.5C120 0.675 120.675 0 121.5 0H148.5C149.325 0 150 0.675 150 1.5V28.5Z" fill="#69A55A"/>
<path d="M132.04 23.8046C132.04 23.4302 131.996 23.2649 131.795 23.2649C131.554 23.2649 131.533 23.4953 131.533 24.1685C131.533 24.9308 131.558 25.1288 131.81 25.1288C132.032 25.1288 132.058 24.8732 132.061 24.4739H132.644V24.5639C132.644 25.1183 132.489 25.532 131.741 25.532C130.968 25.532 130.906 24.9524 130.906 24.179C130.906 23.5205 130.943 22.862 131.799 22.862C132.331 22.862 132.623 23.0927 132.623 23.6966V23.8043H132.04V23.8046Z" fill="white"/>
<path d="M133.483 22.912H134.239L134.879 25.4809H134.253L134.16 24.9916H133.544L133.454 25.4809H132.828L133.483 22.912ZM133.85 23.3797H133.843L133.631 24.5239H134.07L133.85 23.3797Z" fill="white"/>
<path d="M135.686 24.6967V24.7867C135.686 24.9808 135.74 25.1287 135.949 25.1287C136.162 25.1287 136.223 24.9706 136.223 24.8227C136.223 24.2683 135.118 24.5782 135.118 23.6173C135.118 23.2072 135.337 22.8613 135.96 22.8613C136.564 22.8613 136.78 23.1673 136.78 23.5627V23.6239H136.197C136.197 23.5015 136.183 23.4115 136.147 23.3542C136.111 23.2933 136.053 23.2642 135.964 23.2642C135.812 23.2642 135.723 23.3542 135.723 23.5417C135.723 24.0775 136.827 23.8078 136.827 24.7144C136.827 25.2973 136.503 25.5316 135.949 25.5316C135.51 25.5316 135.104 25.3984 135.104 24.8623V24.6967H135.686Z" fill="white"/>
<path d="M137.231 22.912H137.836V23.8729H138.318V22.912H138.923V25.4809H138.318V24.3835H137.836V25.4809H137.231V22.912Z" fill="white"/>
<path d="M134.999 17.3953C137.673 17.3953 139.84 14.709 139.84 11.3953C139.84 8.08155 137.673 5.39526 134.999 5.39526C132.326 5.39526 130.158 8.08155 130.158 11.3953C130.158 14.709 132.326 17.3953 134.999 17.3953Z" fill="white"/>
<path d="M135.963 10.0896C135.754 9.77524 135.488 9.56584 135.097 9.56584C134.797 9.56584 134.406 9.71944 134.406 10.0686C134.406 10.9134 136.913 10.9134 136.913 12.5547C136.919 13.4835 136.277 14.0004 135.481 14.175V14.8173H134.811V14.175C134.064 14.1051 133.456 13.6929 133.086 13.0365L133.938 12.5268C134.182 12.9525 134.553 13.2252 135.063 13.2252C135.419 13.2252 135.887 13.0857 135.887 12.6456C135.887 11.8425 133.38 11.8077 133.38 10.1667C133.38 9.31474 134.015 8.73484 134.811 8.61664V7.97404H135.481V8.61664C136.04 8.77024 136.543 9.07024 136.801 9.59404L135.963 10.0896Z" fill="#69A55A"/>
<path d="M190 28.5C190 29.325 189.325 30 188.5 30H161.5C160.675 30 160 29.325 160 28.5V1.5C160 0.675 160.675 0 161.5 0H188.5C189.325 0 190 0.675 190 1.5V28.5Z" fill="#EBAB1F"/>
<path d="M167.172 17.2699V9.14587L166.195 9.41827V17.5438L167.172 17.2699Z" fill="#231F20"/>
<path d="M166 18.7336C166 18.9586 166.245 19.1482 166.488 19.1161L167.431 18.8707V17.6512L166.001 18.0517L166 18.7336Z" fill="#231F20"/>
<path d="M166 20.2297C166 20.4547 166.245 20.6434 166.488 20.6113L167.431 20.3653V19.1461L166.001 19.5469L166 20.2297Z" fill="#231F20"/>
<path d="M166 21.7248C166 21.9492 166.245 22.1385 166.488 22.1067L167.431 21.8577V20.6412L166.001 21.042L166 21.7248Z" fill="#231F20"/>
<path d="M170.511 16.1202C170.446 16.2654 170.314 16.3908 170.162 16.4325L169.642 16.5813L169.644 19.1094C169.644 19.1811 169.585 19.2414 169.512 19.2414C169.44 19.2414 169.38 19.1811 169.38 19.1094L169.382 15.453C169.382 15.0219 169.032 14.6715 168.602 14.6715H168.472C168.042 14.6715 167.691 15.0219 167.691 15.453V23.0562C167.691 23.6415 168.212 24.1626 168.602 24.4536L168.991 24.7794H172.175V18.6681C172.175 18.6681 172.175 18.4098 172.112 18.2469C172.047 18.0858 171.916 17.955 171.916 17.955L170.511 16.1202Z" fill="#231F20"/>
<path d="M168.731 11.3088C168.731 11.3088 169.145 10.8639 169.559 10.7706C170.501 10.5621 170.55 11.4864 170.55 11.4864V13.815L169.64 14.0715V11.9748C169.64 11.9748 169.687 11.5221 169.365 11.5701C168.812 11.6505 168.731 12.1224 168.731 12.1224V14.3364L167.82 14.5902V11.3421L168.731 11.0856L168.731 11.3088Z" fill="#231F20"/>
<path d="M170.745 11.145V10.5291L171.136 10.4166V9.63603L172.046 9.37953V10.1712L172.728 9.97293V10.5918L172.046 10.788V12.4347C172.046 12.4347 172.05 12.585 172.105 12.633C172.217 12.7254 172.402 12.6408 172.402 12.6408L172.72 12.5178V13.1046C172.72 13.1046 172.207 13.3893 171.932 13.4367C171.749 13.4697 171.558 13.4532 171.347 13.3233C171.136 13.1928 171.136 12.8853 171.136 12.8853V11.031L170.745 11.145Z" fill="#231F20"/>
<path d="M175.636 11.1292V11.4967C175.636 12.0553 175.361 12.4789 174.858 12.6094L174.142 12.8287C173.606 12.9481 173.005 12.6739 173.005 12.1051V10.5772C173.005 10.1467 173.355 9.69969 173.784 9.57759L174.858 9.27759C175.287 9.15849 175.636 9.60609 175.636 10.0348V10.8202L173.88 11.3245V11.8393C173.88 11.9461 173.997 12.1528 174.243 12.0868L174.573 11.9968C174.735 11.9461 174.762 11.7595 174.762 11.6551V11.3728L175.636 11.1292ZM174.762 10.5133V10.2748C174.762 10.1098 174.589 10.0165 174.468 10.054L174.17 10.1383C173.988 10.1926 173.88 10.3984 173.88 10.5037V10.7578L174.762 10.5133Z" fill="#231F20"/>
<path d="M176.919 9.99281V11.9143L176.01 12.1525V8.98421L176.867 8.74331L176.912 8.87981C177.142 8.64071 177.45 8.48051 177.796 8.43491V9.26081C177.747 9.25211 177.717 9.24521 177.667 9.24521C177.255 9.24491 176.919 9.57941 176.919 9.99281Z" fill="#231F20"/>
<path d="M183.502 8.83472C183.502 9.69962 183.225 10.0416 182.721 10.1715L182.007 10.3902C181.47 10.5135 180.869 10.4325 180.869 9.71702V8.36942C180.869 7.80002 181.032 7.42592 181.65 7.20632L182.461 6.98192C183.185 6.84482 183.503 7.22942 183.42 7.93832L182.626 8.15702V7.95302C182.626 7.84772 182.6 7.66562 182.339 7.71122L182.009 7.80632C181.79 7.88432 181.742 8.09552 181.742 8.19932V9.39992C181.742 9.63632 181.937 9.76862 182.269 9.70592L182.388 9.67082C182.693 9.55772 182.659 9.16922 182.659 9.06422L183.502 8.83472Z" fill="#231F20"/>
<path d="M178.578 11.4067C178.319 11.3791 177.831 11.2918 177.831 10.5133C177.831 9.73388 178.512 9.53648 179.065 9.32558C179.617 9.11468 179.569 8.93678 179.569 8.75738C179.569 8.65628 179.481 8.50508 179.162 8.61008C178.76 8.74508 178.775 9.01328 178.775 9.01328V9.18548L177.961 9.41228V9.03848C177.961 9.03848 177.928 8.28698 178.886 8.04098C179.698 7.83668 179.732 7.81298 179.942 7.86338C180.545 8.01038 180.463 8.63258 180.463 8.63258V10.8496L179.586 11.1061V10.9999C179.586 11.0002 179.049 11.455 178.578 11.4067ZM179.586 9.76418C179.586 9.76418 178.652 10.0021 178.797 10.4674C178.878 10.7272 179.221 10.6186 179.369 10.5088C179.589 10.3444 179.586 10.1509 179.586 10.1509V9.76418Z" fill="#231F20"/>
<path d="M183.214 6.05948V5.42678H183.495C183.551 5.42678 183.594 5.43098 183.624 5.44208C183.654 5.45318 183.677 5.47298 183.693 5.50328C183.712 5.53058 183.719 5.56268 183.719 5.59838C183.719 5.64368 183.706 5.68088 183.676 5.71118C183.646 5.74178 183.603 5.76098 183.542 5.76938C183.562 5.77988 183.58 5.78888 183.592 5.80208C183.616 5.82368 183.64 5.85218 183.663 5.88458L183.771 6.05918H183.667L183.583 5.92598C183.557 5.88698 183.538 5.85758 183.521 5.83898C183.506 5.81858 183.493 5.80448 183.479 5.79608C183.466 5.78678 183.454 5.78318 183.44 5.77988C183.431 5.77778 183.416 5.77778 183.394 5.77778H183.298V6.05918L183.214 6.05948ZM183.298 5.70518H183.478C183.515 5.70518 183.545 5.70068 183.568 5.69318C183.589 5.68508 183.606 5.67278 183.616 5.65478C183.628 5.63768 183.633 5.61758 183.633 5.59838C183.633 5.56658 183.623 5.54378 183.602 5.52338C183.58 5.50478 183.546 5.49308 183.499 5.49308H183.298V5.70518Z" fill="#231F20"/>
<path d="M183.453 5.22126C183.603 5.22126 183.74 5.28306 183.838 5.38296C183.939 5.47986 183.999 5.61756 183.999 5.76816C183.999 5.91786 183.939 6.05496 183.838 6.15486C183.74 6.25296 183.603 6.31596 183.453 6.31596C183.302 6.31596 183.164 6.25326 183.066 6.15486C182.968 6.05496 182.906 5.91786 182.906 5.76816C182.906 5.61786 182.968 5.47986 183.066 5.38326C183.164 5.28306 183.302 5.22126 183.453 5.22126ZM183.793 5.42916C183.706 5.34246 183.586 5.28546 183.453 5.28546C183.32 5.28546 183.2 5.34246 183.112 5.42916C183.024 5.51616 182.97 5.63556 182.97 5.76816C182.97 5.90166 183.024 6.02226 183.112 6.10896C183.2 6.19566 183.32 6.25026 183.453 6.25026C183.586 6.25026 183.706 6.19566 183.793 6.10896C183.881 6.02226 183.936 5.90196 183.936 5.76816C183.935 5.63556 183.881 5.51586 183.793 5.42916Z" fill="#231F20"/>
</svg>
