<svg width="12" height="12" viewBox="0 0 12 12" fill="none" xmlns="http://www.w3.org/2000/svg">
<path d="M0.170703 1.00134C-0.0542969 0.776337 -0.0542969 0.401861 0.170703 0.168994C0.40357 -0.0560059 0.770179 -0.0560059 1.00305 0.168994L5.99763 5.17197L11.0006 0.168994C11.2256 -0.0560059 11.6001 -0.0560059 11.8245 0.168994C12.0574 0.401861 12.0574 0.776861 11.8245 1.00134L6.82997 5.99644L11.8245 10.9994C12.0574 11.2244 12.0574 11.5989 11.8245 11.8318C11.5995 12.0568 11.2251 12.0568 11.0006 11.8318L5.99763 6.82879L1.00305 11.8318C0.770179 12.0568 0.40357 12.0568 0.170703 11.8318C-0.0542969 11.5989 -0.0542969 11.2239 0.170703 10.9994L5.16528 5.99644L0.170703 1.00134Z" fill="#1C1C1C"/>
</svg>
